G75*
G70*
%OFA0B0*%
%FSLAX24Y24*%
%IPPOS*%
%LPD*%
%AMOC8*
5,1,8,0,0,1.08239X$1,22.5*
%
%ADD10C,0.0020*%
%ADD11C,0.0050*%
%ADD12R,0.1800X4.5000*%
%ADD13R,0.1750X4.5000*%
%ADD14R,0.1500X0.3000*%
D10*
X005025Y039151D02*
X005171Y039151D01*
X005025Y039298D01*
X005025Y039335D01*
X005061Y039371D01*
X005135Y039371D01*
X005171Y039335D01*
X006775Y039371D02*
X006921Y039371D01*
X006921Y039261D01*
X006848Y039298D01*
X006811Y039298D01*
X006775Y039261D01*
X006775Y039188D01*
X006811Y039151D01*
X006885Y039151D01*
X006921Y039188D01*
X008275Y039188D02*
X008311Y039151D01*
X008385Y039151D01*
X008421Y039188D01*
X008421Y039224D01*
X008385Y039261D01*
X008311Y039261D01*
X008275Y039224D01*
X008275Y039188D01*
X008311Y039261D02*
X008275Y039298D01*
X008275Y039335D01*
X008311Y039371D01*
X008385Y039371D01*
X008421Y039335D01*
X008421Y039298D01*
X008385Y039261D01*
X009804Y039151D02*
X009950Y039151D01*
X009877Y039151D02*
X009877Y039371D01*
X009950Y039298D01*
X010025Y039151D02*
X010171Y039151D01*
X010098Y039151D02*
X010098Y039371D01*
X010171Y039298D01*
X011304Y039298D02*
X011304Y039335D01*
X011340Y039371D01*
X011414Y039371D01*
X011450Y039335D01*
X011304Y039298D02*
X011450Y039151D01*
X011304Y039151D01*
X011525Y039151D02*
X011671Y039151D01*
X011598Y039151D02*
X011598Y039371D01*
X011671Y039298D01*
X009885Y044151D02*
X009811Y044151D01*
X009775Y044188D01*
X009775Y044335D01*
X009811Y044371D01*
X009885Y044371D01*
X009921Y044335D01*
X009921Y044298D01*
X009885Y044261D01*
X009775Y044261D01*
X009885Y044151D02*
X009921Y044188D01*
X008421Y044188D02*
X008385Y044151D01*
X008311Y044151D01*
X008275Y044188D01*
X008275Y044224D01*
X008311Y044261D01*
X008421Y044261D01*
X008421Y044188D01*
X008421Y044261D02*
X008348Y044335D01*
X008275Y044371D01*
X006921Y044335D02*
X006885Y044371D01*
X006811Y044371D01*
X006775Y044335D01*
X006775Y044298D01*
X006811Y044261D01*
X006775Y044224D01*
X006775Y044188D01*
X006811Y044151D01*
X006885Y044151D01*
X006921Y044188D01*
X006848Y044261D02*
X006811Y044261D01*
X005171Y044188D02*
X005025Y044335D01*
X005025Y044188D01*
X005061Y044151D01*
X005135Y044151D01*
X005171Y044188D01*
X005171Y044335D01*
X005135Y044371D01*
X005061Y044371D01*
X005025Y044335D01*
X017304Y044224D02*
X017304Y044371D01*
X017450Y044371D02*
X017450Y044224D01*
X017377Y044151D01*
X017304Y044224D01*
X017525Y044188D02*
X017561Y044151D01*
X017635Y044151D01*
X017671Y044188D01*
X017671Y044261D02*
X017598Y044298D01*
X017561Y044298D01*
X017525Y044261D01*
X017525Y044188D01*
X017671Y044261D02*
X017671Y044371D01*
X017525Y044371D01*
X019083Y044335D02*
X019119Y044371D01*
X019229Y044371D01*
X019229Y044151D01*
X019119Y044151D01*
X019083Y044188D01*
X019083Y044335D01*
X019304Y044371D02*
X019304Y044151D01*
X019450Y044371D01*
X019450Y044151D01*
X019525Y044188D02*
X019525Y044261D01*
X019598Y044261D01*
X019525Y044188D02*
X019561Y044151D01*
X019635Y044151D01*
X019671Y044188D01*
X019671Y044335D01*
X019635Y044371D01*
X019561Y044371D01*
X019525Y044335D01*
D11*
X004385Y000141D02*
X041985Y000141D01*
X041985Y045141D01*
X034385Y041391D02*
X034387Y041445D01*
X034393Y041499D01*
X034403Y041552D01*
X034416Y041605D01*
X034433Y041656D01*
X034454Y041706D01*
X034479Y041754D01*
X034507Y041801D01*
X034538Y041845D01*
X034572Y041887D01*
X034609Y041926D01*
X034649Y041963D01*
X034692Y041996D01*
X034737Y042027D01*
X034784Y042054D01*
X034832Y042077D01*
X034883Y042097D01*
X034934Y042114D01*
X034987Y042126D01*
X035040Y042135D01*
X035094Y042140D01*
X035149Y042141D01*
X035203Y042138D01*
X035256Y042131D01*
X035309Y042120D01*
X035362Y042106D01*
X035413Y042088D01*
X035462Y042066D01*
X035510Y042041D01*
X035556Y042012D01*
X035600Y041980D01*
X035641Y041945D01*
X035679Y041907D01*
X035715Y041866D01*
X035748Y041823D01*
X035778Y041778D01*
X035804Y041730D01*
X035827Y041681D01*
X035846Y041630D01*
X035861Y041579D01*
X035873Y041526D01*
X035881Y041472D01*
X035885Y041418D01*
X035885Y041364D01*
X035881Y041310D01*
X035873Y041256D01*
X035861Y041203D01*
X035846Y041152D01*
X035827Y041101D01*
X035804Y041052D01*
X035778Y041004D01*
X035748Y040959D01*
X035715Y040916D01*
X035679Y040875D01*
X035641Y040837D01*
X035600Y040802D01*
X035556Y040770D01*
X035510Y040741D01*
X035462Y040716D01*
X035413Y040694D01*
X035362Y040676D01*
X035309Y040662D01*
X035256Y040651D01*
X035203Y040644D01*
X035149Y040641D01*
X035094Y040642D01*
X035040Y040647D01*
X034987Y040656D01*
X034934Y040668D01*
X034883Y040685D01*
X034832Y040705D01*
X034784Y040728D01*
X034737Y040755D01*
X034692Y040786D01*
X034649Y040819D01*
X034609Y040856D01*
X034572Y040895D01*
X034538Y040937D01*
X034507Y040981D01*
X034479Y041028D01*
X034454Y041076D01*
X034433Y041126D01*
X034416Y041177D01*
X034403Y041230D01*
X034393Y041283D01*
X034387Y041337D01*
X034385Y041391D01*
X013885Y041391D02*
X013887Y041445D01*
X013893Y041499D01*
X013903Y041552D01*
X013916Y041605D01*
X013933Y041656D01*
X013954Y041706D01*
X013979Y041754D01*
X014007Y041801D01*
X014038Y041845D01*
X014072Y041887D01*
X014109Y041926D01*
X014149Y041963D01*
X014192Y041996D01*
X014237Y042027D01*
X014284Y042054D01*
X014332Y042077D01*
X014383Y042097D01*
X014434Y042114D01*
X014487Y042126D01*
X014540Y042135D01*
X014594Y042140D01*
X014649Y042141D01*
X014703Y042138D01*
X014756Y042131D01*
X014809Y042120D01*
X014862Y042106D01*
X014913Y042088D01*
X014962Y042066D01*
X015010Y042041D01*
X015056Y042012D01*
X015100Y041980D01*
X015141Y041945D01*
X015179Y041907D01*
X015215Y041866D01*
X015248Y041823D01*
X015278Y041778D01*
X015304Y041730D01*
X015327Y041681D01*
X015346Y041630D01*
X015361Y041579D01*
X015373Y041526D01*
X015381Y041472D01*
X015385Y041418D01*
X015385Y041364D01*
X015381Y041310D01*
X015373Y041256D01*
X015361Y041203D01*
X015346Y041152D01*
X015327Y041101D01*
X015304Y041052D01*
X015278Y041004D01*
X015248Y040959D01*
X015215Y040916D01*
X015179Y040875D01*
X015141Y040837D01*
X015100Y040802D01*
X015056Y040770D01*
X015010Y040741D01*
X014962Y040716D01*
X014913Y040694D01*
X014862Y040676D01*
X014809Y040662D01*
X014756Y040651D01*
X014703Y040644D01*
X014649Y040641D01*
X014594Y040642D01*
X014540Y040647D01*
X014487Y040656D01*
X014434Y040668D01*
X014383Y040685D01*
X014332Y040705D01*
X014284Y040728D01*
X014237Y040755D01*
X014192Y040786D01*
X014149Y040819D01*
X014109Y040856D01*
X014072Y040895D01*
X014038Y040937D01*
X014007Y040981D01*
X013979Y041028D01*
X013954Y041076D01*
X013933Y041126D01*
X013916Y041177D01*
X013903Y041230D01*
X013893Y041283D01*
X013887Y041337D01*
X013885Y041391D01*
D12*
X003485Y022641D03*
D13*
X042860Y022641D03*
D14*
X037385Y001641D03*
X008985Y001641D03*
M02*
