G75*
G70*
%OFA0B0*%
%FSLAX24Y24*%
%IPPOS*%
%LPD*%
%AMOC8*
5,1,8,0,0,1.08239X$1,22.5*
%
%ADD10C,0.0060*%
%ADD11C,0.0200*%
%ADD12C,0.0050*%
%ADD13C,0.0040*%
%ADD14C,0.0020*%
%ADD15C,0.0030*%
%ADD16C,0.0010*%
%ADD17R,0.0150X0.0550*%
%ADD18R,0.0500X0.0050*%
%ADD19R,0.0050X0.0500*%
%ADD20R,0.0550X0.0150*%
D10*
X008431Y012641D02*
X008181Y012891D01*
X008181Y013391D01*
X008431Y013641D01*
X008181Y013891D01*
X008181Y014391D01*
X008431Y014641D01*
X008931Y014641D01*
X009181Y014391D01*
X009181Y013891D01*
X008931Y013641D01*
X009181Y013391D01*
X009181Y012891D01*
X008931Y012641D01*
X008431Y012641D01*
X008431Y013641D02*
X008931Y013641D01*
X008931Y018141D02*
X008431Y018141D01*
X008181Y018391D01*
X008181Y018891D01*
X008431Y019141D01*
X008181Y019391D01*
X008181Y019891D01*
X008431Y020141D01*
X008931Y020141D01*
X009181Y019891D01*
X009181Y019391D01*
X008931Y019141D01*
X009181Y018891D01*
X009181Y018391D01*
X008931Y018141D01*
X008931Y019141D02*
X008431Y019141D01*
X008431Y023641D02*
X008181Y023891D01*
X008181Y024391D01*
X008431Y024641D01*
X008181Y024891D01*
X008181Y025391D01*
X008431Y025641D01*
X008931Y025641D01*
X009181Y025391D01*
X009181Y024891D01*
X008931Y024641D01*
X009181Y024391D01*
X009181Y023891D01*
X008931Y023641D01*
X008431Y023641D01*
X008431Y024641D02*
X008931Y024641D01*
X008931Y029141D02*
X008431Y029141D01*
X008181Y029391D01*
X008181Y029891D01*
X008431Y030141D01*
X008181Y030391D01*
X008181Y030891D01*
X008431Y031141D01*
X008931Y031141D01*
X009181Y030891D01*
X009181Y030391D01*
X008931Y030141D01*
X009181Y029891D01*
X009181Y029391D01*
X008931Y029141D01*
X008931Y030141D02*
X008431Y030141D01*
X008431Y033141D02*
X008181Y033391D01*
X008181Y033891D01*
X008431Y034141D01*
X008181Y034391D01*
X008181Y034891D01*
X008431Y035141D01*
X008931Y035141D01*
X009181Y034891D01*
X009181Y034391D01*
X008931Y034141D01*
X009181Y033891D01*
X009181Y033391D01*
X008931Y033141D01*
X008431Y033141D01*
X008431Y034141D02*
X008931Y034141D01*
X019425Y021562D02*
X019425Y020921D01*
X019638Y020921D02*
X019211Y020921D01*
X019181Y020641D02*
X018931Y020391D01*
X018931Y019891D01*
X019181Y019641D01*
X018931Y019391D01*
X018931Y018891D01*
X019181Y018641D01*
X018931Y018391D01*
X018931Y017891D01*
X019181Y017641D01*
X019681Y017641D01*
X019931Y017891D01*
X019931Y018391D01*
X019681Y018641D01*
X019181Y018641D01*
X019681Y018641D02*
X019931Y018891D01*
X019931Y019391D01*
X019681Y019641D01*
X019181Y019641D01*
X019681Y019641D02*
X019931Y019891D01*
X019931Y020391D01*
X019681Y020641D01*
X019181Y020641D01*
X019211Y021348D02*
X019425Y021562D01*
X020931Y020391D02*
X020931Y019891D01*
X021181Y019641D01*
X020931Y019391D01*
X020931Y018891D01*
X021181Y018641D01*
X020931Y018391D01*
X020931Y017891D01*
X021181Y017641D01*
X021681Y017641D01*
X021931Y017891D01*
X021931Y018391D01*
X021681Y018641D01*
X021181Y018641D01*
X021681Y018641D02*
X021931Y018891D01*
X021931Y019391D01*
X021681Y019641D01*
X021181Y019641D01*
X021681Y019641D02*
X021931Y019891D01*
X021931Y020391D01*
X021681Y020641D01*
X021181Y020641D01*
X020931Y020391D01*
X022931Y020391D02*
X022931Y019891D01*
X023181Y019641D01*
X022931Y019391D01*
X022931Y018891D01*
X023181Y018641D01*
X022931Y018391D01*
X022931Y017891D01*
X023181Y017641D01*
X023681Y017641D01*
X023931Y017891D01*
X023931Y018391D01*
X023681Y018641D01*
X023181Y018641D01*
X023681Y018641D02*
X023931Y018891D01*
X023931Y019391D01*
X023681Y019641D01*
X023181Y019641D01*
X023681Y019641D02*
X023931Y019891D01*
X023931Y020391D01*
X023681Y020641D01*
X023181Y020641D01*
X022931Y020391D01*
X024931Y020391D02*
X024931Y019891D01*
X025181Y019641D01*
X024931Y019391D01*
X024931Y018891D01*
X025181Y018641D01*
X024931Y018391D01*
X024931Y017891D01*
X025181Y017641D01*
X025681Y017641D01*
X025931Y017891D01*
X025931Y018391D01*
X025681Y018641D01*
X025181Y018641D01*
X025681Y018641D02*
X025931Y018891D01*
X025931Y019391D01*
X025681Y019641D01*
X025181Y019641D01*
X025681Y019641D02*
X025931Y019891D01*
X025931Y020391D01*
X025681Y020641D01*
X025181Y020641D01*
X024931Y020391D01*
X019638Y017205D02*
X019211Y016778D01*
X019318Y016671D01*
X019532Y016671D01*
X019638Y016778D01*
X019638Y017205D01*
X019532Y017312D01*
X019318Y017312D01*
X019211Y017205D01*
X019211Y016778D01*
X017931Y006141D02*
X017431Y006141D01*
X017181Y005891D01*
X017181Y005391D01*
X017431Y005141D01*
X017931Y005141D01*
X018181Y005391D01*
X018181Y005891D01*
X017931Y006141D01*
X017181Y005891D02*
X016931Y006141D01*
X016431Y006141D01*
X016181Y005891D01*
X016181Y005391D01*
X016431Y005141D01*
X016931Y005141D01*
X017181Y005391D01*
X021681Y005391D02*
X021931Y005141D01*
X022431Y005141D01*
X022681Y005391D01*
X022931Y005141D01*
X023431Y005141D01*
X023681Y005391D01*
X023681Y005891D01*
X023431Y006141D01*
X022931Y006141D01*
X022681Y005891D01*
X022681Y005391D01*
X022681Y005891D02*
X022431Y006141D01*
X021931Y006141D01*
X021681Y005891D01*
X021681Y005391D01*
X027181Y005391D02*
X027431Y005141D01*
X027931Y005141D01*
X028181Y005391D01*
X028431Y005141D01*
X028931Y005141D01*
X029181Y005391D01*
X029181Y005891D01*
X028931Y006141D01*
X028431Y006141D01*
X028181Y005891D01*
X028181Y005391D01*
X028181Y005891D02*
X027931Y006141D01*
X027431Y006141D01*
X027181Y005891D01*
X027181Y005391D01*
X033818Y033171D02*
X033925Y033278D01*
X034032Y033171D01*
X034138Y033278D01*
X034138Y033598D01*
X034356Y033598D02*
X034356Y033278D01*
X034463Y033171D01*
X034569Y033278D01*
X034676Y033171D01*
X034783Y033278D01*
X034783Y033598D01*
X035000Y033598D02*
X035000Y033278D01*
X035107Y033171D01*
X035214Y033278D01*
X035321Y033171D01*
X035427Y033278D01*
X035427Y033598D01*
X035645Y033278D02*
X035752Y033278D01*
X035752Y033171D01*
X035645Y033171D01*
X035645Y033278D01*
X035967Y033171D02*
X036394Y033598D01*
X036612Y033491D02*
X037039Y033491D01*
X037256Y033598D02*
X037577Y033598D01*
X037683Y033491D01*
X037683Y033278D01*
X037577Y033171D01*
X037256Y033171D01*
X037256Y033812D01*
X037901Y033598D02*
X037901Y033171D01*
X038114Y033171D02*
X038114Y033491D01*
X038221Y033598D01*
X038328Y033491D01*
X038328Y033171D01*
X038545Y033171D02*
X038866Y033171D01*
X038972Y033278D01*
X038866Y033385D01*
X038652Y033385D01*
X038545Y033491D01*
X038652Y033598D01*
X038972Y033598D01*
X039190Y033278D02*
X039297Y033278D01*
X039297Y033171D01*
X039190Y033171D01*
X039190Y033278D01*
X039512Y033278D02*
X039619Y033171D01*
X039939Y033171D01*
X040157Y033278D02*
X040263Y033171D01*
X040477Y033171D01*
X040584Y033278D01*
X040584Y033491D01*
X040477Y033598D01*
X040263Y033598D01*
X040157Y033491D01*
X040157Y033278D01*
X039939Y033598D02*
X039619Y033598D01*
X039512Y033491D01*
X039512Y033278D01*
X040801Y033171D02*
X040801Y033598D01*
X040908Y033598D01*
X041015Y033491D01*
X041121Y033598D01*
X041228Y033491D01*
X041228Y033171D01*
X041015Y033171D02*
X041015Y033491D01*
X038114Y033491D02*
X038008Y033598D01*
X037901Y033598D01*
X036394Y033171D02*
X035967Y033598D01*
X033818Y033171D02*
X033711Y033278D01*
X033711Y033598D01*
D11*
X033843Y034741D02*
X032281Y037083D01*
X033843Y037083D02*
X032281Y034741D01*
X034620Y035912D02*
X036181Y035912D01*
X036959Y035912D02*
X038130Y035912D01*
X038520Y035522D01*
X038520Y035131D01*
X038130Y034741D01*
X036959Y034741D01*
X036959Y037083D01*
X038130Y037083D01*
X038520Y036693D01*
X038520Y036302D01*
X038130Y035912D01*
X039298Y034741D02*
X039298Y037083D01*
X040078Y036302D01*
X040859Y037083D01*
X040859Y034741D01*
X041637Y035131D02*
X042027Y034741D01*
X042808Y034741D01*
X043198Y035131D01*
X043198Y035522D01*
X042808Y035912D01*
X042027Y035912D01*
X041637Y036302D01*
X041637Y036693D01*
X042027Y037083D01*
X042808Y037083D01*
X043198Y036693D01*
D12*
X004935Y002041D02*
X002085Y002041D01*
X002085Y032691D01*
X001185Y032691D01*
X001185Y045141D01*
X013135Y045141D02*
X013135Y039641D01*
X016135Y039641D01*
X016135Y045141D01*
X024885Y045141D01*
X033635Y045141D02*
X036635Y045141D01*
X036635Y039641D01*
X033635Y039641D01*
X033635Y045141D01*
X024981Y035841D02*
X024431Y035841D01*
X023881Y035841D02*
X023531Y035841D01*
X023031Y035841D02*
X022931Y035841D01*
X022931Y034691D01*
X024981Y034691D01*
X024981Y035841D01*
X024981Y034691D02*
X024981Y034491D01*
X022931Y034491D01*
X022931Y034691D01*
X020772Y033810D02*
X020772Y033377D01*
X019591Y033377D01*
X019591Y033810D01*
X019630Y033810D02*
X020772Y033810D01*
X018772Y033810D02*
X018772Y033377D01*
X017591Y033377D01*
X017591Y033810D01*
X017630Y033810D02*
X018772Y033810D01*
X016772Y033810D02*
X016772Y033377D01*
X015591Y033377D01*
X015591Y033810D01*
X015630Y033810D02*
X016772Y033810D01*
X014081Y034432D02*
X014081Y034551D01*
X014081Y034432D02*
X013255Y034432D01*
X013255Y035102D01*
X013215Y035102D01*
X013215Y034432D01*
X013176Y034432D01*
X013176Y035102D01*
X013215Y035102D01*
X013237Y035102D01*
X013237Y034472D01*
X013255Y034432D02*
X013215Y034432D01*
X013179Y034432D02*
X013179Y034551D01*
X013179Y034432D02*
X013176Y034432D01*
X013281Y034441D02*
X013281Y035141D01*
X013331Y035141D01*
X013331Y034441D01*
X013531Y034541D02*
X013581Y034541D01*
X013594Y034543D01*
X013606Y034548D01*
X013616Y034556D01*
X013624Y034566D01*
X013629Y034578D01*
X013631Y034591D01*
X013630Y034561D02*
X013630Y034747D01*
X013906Y034590D01*
X013906Y034944D01*
X013630Y034787D01*
X013630Y035012D01*
X013631Y034991D02*
X013633Y035004D01*
X013638Y035016D01*
X013646Y035026D01*
X013656Y035034D01*
X013668Y035039D01*
X013681Y035041D01*
X013731Y035041D01*
X013744Y035039D01*
X013756Y035034D01*
X013766Y035026D01*
X013774Y035016D01*
X013779Y035004D01*
X013781Y034991D01*
X013631Y034891D02*
X013631Y034741D01*
X013481Y034591D02*
X013483Y034578D01*
X013488Y034566D01*
X013496Y034556D01*
X013506Y034548D01*
X013518Y034543D01*
X013531Y034541D01*
X013179Y035023D02*
X013179Y035141D01*
X013281Y035141D01*
X014081Y035141D01*
X014081Y035023D01*
X014081Y035932D02*
X013255Y035932D01*
X013255Y036602D01*
X013215Y036602D01*
X013215Y035932D01*
X013176Y035932D01*
X013176Y036602D01*
X013215Y036602D01*
X013237Y036602D01*
X013237Y035972D01*
X013255Y035932D02*
X013215Y035932D01*
X013179Y035932D02*
X013179Y036051D01*
X013179Y035932D02*
X013176Y035932D01*
X013281Y035941D02*
X013281Y036641D01*
X013331Y036641D01*
X013331Y035941D01*
X013531Y036041D02*
X013581Y036041D01*
X013594Y036043D01*
X013606Y036048D01*
X013616Y036056D01*
X013624Y036066D01*
X013629Y036078D01*
X013631Y036091D01*
X013630Y036061D02*
X013630Y036247D01*
X013906Y036090D01*
X013906Y036444D01*
X013630Y036287D01*
X013630Y036512D01*
X013631Y036491D02*
X013633Y036504D01*
X013638Y036516D01*
X013646Y036526D01*
X013656Y036534D01*
X013668Y036539D01*
X013681Y036541D01*
X013731Y036541D01*
X013744Y036539D01*
X013756Y036534D01*
X013766Y036526D01*
X013774Y036516D01*
X013779Y036504D01*
X013781Y036491D01*
X013631Y036391D02*
X013631Y036241D01*
X013481Y036091D02*
X013483Y036078D01*
X013488Y036066D01*
X013496Y036056D01*
X013506Y036048D01*
X013518Y036043D01*
X013531Y036041D01*
X014081Y036051D02*
X014081Y035932D01*
X014081Y036523D02*
X014081Y036641D01*
X013281Y036641D01*
X013179Y036641D01*
X013179Y036523D01*
X013176Y037432D02*
X013215Y037432D01*
X013215Y038102D01*
X013255Y038102D01*
X013255Y037432D01*
X014081Y037432D01*
X014081Y037551D01*
X013906Y037590D02*
X013630Y037747D01*
X013630Y037561D01*
X013581Y037541D02*
X013531Y037541D01*
X013518Y037543D01*
X013506Y037548D01*
X013496Y037556D01*
X013488Y037566D01*
X013483Y037578D01*
X013481Y037591D01*
X013581Y037541D02*
X013594Y037543D01*
X013606Y037548D01*
X013616Y037556D01*
X013624Y037566D01*
X013629Y037578D01*
X013631Y037591D01*
X013631Y037741D02*
X013631Y037891D01*
X013630Y037787D02*
X013630Y038012D01*
X013631Y037991D02*
X013633Y038004D01*
X013638Y038016D01*
X013646Y038026D01*
X013656Y038034D01*
X013668Y038039D01*
X013681Y038041D01*
X013731Y038041D01*
X013744Y038039D01*
X013756Y038034D01*
X013766Y038026D01*
X013774Y038016D01*
X013779Y038004D01*
X013781Y037991D01*
X013906Y037944D02*
X013630Y037787D01*
X013906Y037944D02*
X013906Y037590D01*
X014081Y038023D02*
X014081Y038141D01*
X013281Y038141D01*
X013331Y038141D01*
X013331Y037441D01*
X013281Y037441D02*
X013281Y038141D01*
X013179Y038141D01*
X013179Y038023D01*
X013176Y038102D02*
X013176Y037432D01*
X013179Y037432D01*
X013179Y037551D01*
X013237Y037472D02*
X013237Y038102D01*
X013215Y038102D01*
X013176Y038102D01*
X013215Y037432D02*
X013255Y037432D01*
X012508Y032903D02*
X011878Y032903D01*
X011878Y032706D01*
X011918Y032706D02*
X011918Y032864D01*
X011878Y032864D01*
X011878Y032903D02*
X011721Y032903D01*
X011721Y032706D01*
X011957Y032864D02*
X011957Y031840D01*
X012508Y031840D01*
X012508Y032076D01*
X011918Y032076D02*
X011918Y031840D01*
X011957Y031840D01*
X011918Y031840D02*
X011878Y031840D01*
X011878Y032076D01*
X011721Y032076D02*
X011721Y031840D01*
X011878Y031840D01*
X012508Y032706D02*
X012508Y032903D01*
X013931Y030841D02*
X013931Y030341D01*
X013931Y029941D02*
X013931Y029491D01*
X014431Y029491D01*
X014431Y030841D01*
X013931Y030841D01*
X012508Y027403D02*
X011878Y027403D01*
X011878Y027206D01*
X011918Y027206D02*
X011918Y027364D01*
X011878Y027364D01*
X011878Y027403D02*
X011721Y027403D01*
X011721Y027206D01*
X011957Y027364D02*
X011957Y026340D01*
X012508Y026340D01*
X012508Y026576D01*
X011918Y026576D02*
X011918Y026340D01*
X011957Y026340D01*
X011918Y026340D02*
X011878Y026340D01*
X011878Y026576D01*
X011721Y026576D02*
X011721Y026340D01*
X011878Y026340D01*
X012508Y027206D02*
X012508Y027403D01*
X013931Y025341D02*
X013931Y024841D01*
X013931Y024441D02*
X013931Y023991D01*
X014431Y023991D01*
X014431Y025341D01*
X013931Y025341D01*
X012508Y021903D02*
X011878Y021903D01*
X011878Y021706D01*
X011918Y021706D02*
X011918Y021864D01*
X011878Y021864D01*
X011878Y021903D02*
X011721Y021903D01*
X011721Y021706D01*
X011957Y021864D02*
X011957Y020840D01*
X012508Y020840D01*
X012508Y021076D01*
X011918Y021076D02*
X011918Y020840D01*
X011957Y020840D01*
X011918Y020840D02*
X011878Y020840D01*
X011878Y021076D01*
X011721Y021076D02*
X011721Y020840D01*
X011878Y020840D01*
X012508Y021706D02*
X012508Y021903D01*
X013931Y020341D02*
X013931Y019841D01*
X013931Y019441D02*
X013931Y018991D01*
X014431Y018991D01*
X014431Y020341D01*
X013931Y020341D01*
X012508Y016403D02*
X011878Y016403D01*
X011878Y016206D01*
X011918Y016206D02*
X011918Y016364D01*
X011878Y016364D01*
X011878Y016403D02*
X011721Y016403D01*
X011721Y016206D01*
X011957Y016364D02*
X011957Y015340D01*
X012508Y015340D01*
X012508Y015576D01*
X011918Y015576D02*
X011918Y015340D01*
X011957Y015340D01*
X011918Y015340D02*
X011878Y015340D01*
X011878Y015576D01*
X011721Y015576D02*
X011721Y015340D01*
X011878Y015340D01*
X012508Y016206D02*
X012508Y016403D01*
X013931Y015341D02*
X013931Y014841D01*
X013931Y014441D02*
X013931Y013991D01*
X014431Y013991D01*
X014431Y015341D01*
X013931Y015341D01*
X015981Y011391D02*
X015981Y010891D01*
X016481Y010891D01*
X016881Y010891D02*
X017331Y010891D01*
X017331Y011391D01*
X015981Y011391D01*
X015483Y009718D02*
X015246Y009718D01*
X015483Y009718D02*
X015483Y009167D01*
X014459Y009167D01*
X014459Y009127D02*
X014616Y009127D01*
X014616Y009088D02*
X014420Y009088D01*
X014420Y008930D01*
X014616Y008930D01*
X014459Y009088D02*
X014459Y009127D01*
X014420Y009088D02*
X014420Y009718D01*
X014616Y009718D01*
X015246Y009127D02*
X015483Y009127D01*
X015483Y009167D01*
X015483Y009127D02*
X015483Y009088D01*
X015246Y009088D01*
X015246Y008930D02*
X015483Y008930D01*
X015483Y009088D01*
X019920Y009088D02*
X019920Y008930D01*
X020116Y008930D01*
X020116Y009088D02*
X019920Y009088D01*
X019920Y009718D01*
X020116Y009718D01*
X019959Y009167D02*
X020983Y009167D01*
X020983Y009718D01*
X020746Y009718D01*
X020746Y009127D02*
X020983Y009127D01*
X020983Y009167D01*
X020983Y009127D02*
X020983Y009088D01*
X020746Y009088D01*
X020746Y008930D02*
X020983Y008930D01*
X020983Y009088D01*
X020116Y009127D02*
X019959Y009127D01*
X019959Y009088D01*
X021481Y010891D02*
X021981Y010891D01*
X022381Y010891D02*
X022831Y010891D01*
X022831Y011391D01*
X021481Y011391D01*
X021481Y010891D01*
X025420Y009718D02*
X025420Y009088D01*
X025616Y009088D01*
X025616Y009127D02*
X025459Y009127D01*
X025459Y009088D01*
X025420Y009088D02*
X025420Y008930D01*
X025616Y008930D01*
X025459Y009167D02*
X026483Y009167D01*
X026483Y009718D01*
X026246Y009718D01*
X026246Y009127D02*
X026483Y009127D01*
X026483Y009167D01*
X026483Y009127D02*
X026483Y009088D01*
X026246Y009088D01*
X026246Y008930D02*
X026483Y008930D01*
X026483Y009088D01*
X025616Y009718D02*
X025420Y009718D01*
X026981Y010891D02*
X026981Y011391D01*
X028331Y011391D01*
X028331Y010891D01*
X027881Y010891D01*
X027481Y010891D02*
X026981Y010891D01*
X030920Y009718D02*
X030920Y009088D01*
X031116Y009088D01*
X031116Y009127D02*
X030959Y009127D01*
X030959Y009088D01*
X030920Y009088D02*
X030920Y008930D01*
X031116Y008930D01*
X030959Y009167D02*
X031983Y009167D01*
X031983Y009718D01*
X031746Y009718D01*
X031746Y009127D02*
X031983Y009127D01*
X031983Y009167D01*
X031983Y009127D02*
X031983Y009088D01*
X031746Y009088D01*
X031746Y008930D02*
X031983Y008930D01*
X031983Y009088D01*
X031116Y009718D02*
X030920Y009718D01*
X031981Y010891D02*
X032481Y010891D01*
X032881Y010891D02*
X033331Y010891D01*
X033331Y011391D01*
X031981Y011391D01*
X031981Y010891D01*
X036481Y010891D02*
X036981Y010891D01*
X036981Y011391D01*
X036981Y011791D02*
X036981Y012241D01*
X036481Y012241D01*
X036481Y010891D01*
X038355Y010942D02*
X038355Y010706D01*
X038355Y010942D02*
X038906Y010942D01*
X038906Y009919D01*
X038945Y009919D02*
X038945Y010076D01*
X038985Y010076D02*
X038985Y009879D01*
X039142Y009879D01*
X039142Y010076D01*
X038985Y009919D02*
X038945Y009919D01*
X038985Y009879D02*
X038355Y009879D01*
X038355Y010076D01*
X038945Y010706D02*
X038945Y010942D01*
X038906Y010942D01*
X038945Y010942D02*
X038985Y010942D01*
X038985Y010706D01*
X039142Y010706D02*
X039142Y010942D01*
X038985Y010942D01*
X038985Y015379D02*
X038355Y015379D01*
X038355Y015576D01*
X038906Y015419D02*
X038906Y016442D01*
X038355Y016442D01*
X038355Y016206D01*
X038945Y016206D02*
X038945Y016442D01*
X038906Y016442D01*
X038945Y016442D02*
X038985Y016442D01*
X038985Y016206D01*
X039142Y016206D02*
X039142Y016442D01*
X038985Y016442D01*
X038985Y015576D02*
X038985Y015379D01*
X039142Y015379D01*
X039142Y015576D01*
X038945Y015576D02*
X038945Y015419D01*
X038985Y015419D01*
X036931Y016441D02*
X036931Y016941D01*
X036931Y017341D02*
X036931Y017791D01*
X036431Y017791D01*
X036431Y016441D01*
X036931Y016441D01*
X032339Y016799D02*
X032339Y018767D01*
X032331Y018791D02*
X031381Y018791D01*
X032339Y016799D02*
X027221Y016799D01*
X027181Y016791D02*
X027181Y017741D01*
X027369Y017191D02*
X027371Y017220D01*
X027377Y017248D01*
X027387Y017275D01*
X027400Y017301D01*
X027417Y017325D01*
X027436Y017346D01*
X027459Y017364D01*
X027483Y017379D01*
X027510Y017391D01*
X027538Y017399D01*
X027567Y017403D01*
X027595Y017403D01*
X027624Y017399D01*
X027652Y017391D01*
X027679Y017379D01*
X027703Y017364D01*
X027726Y017346D01*
X027745Y017325D01*
X027762Y017301D01*
X027775Y017275D01*
X027785Y017248D01*
X027791Y017220D01*
X027793Y017191D01*
X027791Y017162D01*
X027785Y017134D01*
X027775Y017107D01*
X027762Y017081D01*
X027745Y017057D01*
X027726Y017036D01*
X027703Y017018D01*
X027679Y017003D01*
X027652Y016991D01*
X027624Y016983D01*
X027595Y016979D01*
X027567Y016979D01*
X027538Y016983D01*
X027510Y016991D01*
X027483Y017003D01*
X027459Y017018D01*
X027436Y017036D01*
X027417Y017057D01*
X027400Y017081D01*
X027387Y017107D01*
X027377Y017134D01*
X027371Y017162D01*
X027369Y017191D01*
X027231Y018791D02*
X027581Y018791D01*
X026626Y019775D02*
X026326Y019775D01*
X026176Y019925D01*
X026326Y020076D01*
X026626Y020076D01*
X026551Y020236D02*
X026626Y020311D01*
X026626Y020461D01*
X026551Y020536D01*
X026476Y020536D01*
X026401Y020461D01*
X026401Y020386D01*
X026401Y020461D02*
X026326Y020536D01*
X026251Y020536D01*
X026176Y020461D01*
X026176Y020311D01*
X026251Y020236D01*
X026401Y020076D02*
X026401Y019775D01*
X024626Y019775D02*
X024326Y019775D01*
X024176Y019925D01*
X024326Y020076D01*
X024626Y020076D01*
X024626Y020236D02*
X024326Y020536D01*
X024251Y020536D01*
X024176Y020461D01*
X024176Y020311D01*
X024251Y020236D01*
X024401Y020076D02*
X024401Y019775D01*
X024626Y020236D02*
X024626Y020536D01*
X022626Y020536D02*
X022626Y020236D01*
X022626Y020386D02*
X022176Y020386D01*
X022326Y020236D01*
X022326Y020076D02*
X022626Y020076D01*
X022401Y020076D02*
X022401Y019775D01*
X022326Y019775D02*
X022176Y019925D01*
X022326Y020076D01*
X022326Y019775D02*
X022626Y019775D01*
X020626Y019775D02*
X020326Y019775D01*
X020176Y019925D01*
X020326Y020076D01*
X020626Y020076D01*
X020551Y020236D02*
X020251Y020536D01*
X020551Y020536D01*
X020626Y020461D01*
X020626Y020311D01*
X020551Y020236D01*
X020251Y020236D01*
X020176Y020311D01*
X020176Y020461D01*
X020251Y020536D01*
X020401Y020076D02*
X020401Y019775D01*
X019981Y027041D02*
X021881Y027041D01*
X022431Y027041D02*
X023081Y027041D01*
X023081Y027291D01*
X023081Y027891D02*
X023081Y028341D01*
X022881Y028341D01*
X022690Y028041D02*
X022692Y028064D01*
X022698Y028087D01*
X022707Y028108D01*
X022720Y028128D01*
X022736Y028145D01*
X022754Y028159D01*
X022774Y028170D01*
X022796Y028178D01*
X022819Y028182D01*
X022843Y028182D01*
X022866Y028178D01*
X022888Y028170D01*
X022908Y028159D01*
X022926Y028145D01*
X022942Y028128D01*
X022955Y028108D01*
X022964Y028087D01*
X022970Y028064D01*
X022972Y028041D01*
X022970Y028018D01*
X022964Y027995D01*
X022955Y027974D01*
X022942Y027954D01*
X022926Y027937D01*
X022908Y027923D01*
X022888Y027912D01*
X022866Y027904D01*
X022843Y027900D01*
X022819Y027900D01*
X022796Y027904D01*
X022774Y027912D01*
X022754Y027923D01*
X022736Y027937D01*
X022720Y027954D01*
X022707Y027974D01*
X022698Y027995D01*
X022692Y028018D01*
X022690Y028041D01*
X025091Y027405D02*
X025091Y026972D01*
X026233Y026972D01*
X026272Y026972D02*
X026272Y027405D01*
X025091Y027405D01*
X026081Y029481D02*
X026081Y031561D01*
X026211Y031561D01*
X026211Y031551D01*
X028821Y031551D01*
X028821Y029481D01*
X026081Y029481D01*
X026211Y031561D02*
X026211Y031591D01*
X028446Y031271D02*
X028448Y031294D01*
X028454Y031316D01*
X028463Y031337D01*
X028476Y031356D01*
X028492Y031372D01*
X028510Y031386D01*
X028531Y031396D01*
X028553Y031403D01*
X028575Y031406D01*
X028598Y031405D01*
X028621Y031400D01*
X028642Y031392D01*
X028661Y031380D01*
X028678Y031364D01*
X028693Y031347D01*
X028704Y031327D01*
X028712Y031305D01*
X028716Y031282D01*
X028716Y031260D01*
X028712Y031237D01*
X028704Y031215D01*
X028693Y031195D01*
X028678Y031178D01*
X028661Y031162D01*
X028642Y031150D01*
X028621Y031142D01*
X028598Y031137D01*
X028575Y031136D01*
X028553Y031139D01*
X028531Y031146D01*
X028510Y031156D01*
X028492Y031170D01*
X028476Y031186D01*
X028463Y031205D01*
X028454Y031226D01*
X028448Y031248D01*
X028446Y031271D01*
X028591Y027405D02*
X029772Y027405D01*
X029772Y026972D01*
X029733Y026972D02*
X028591Y026972D01*
X028591Y027405D01*
X036431Y027441D02*
X036931Y027441D01*
X036931Y027941D01*
X036931Y028341D02*
X036931Y028791D01*
X036431Y028791D01*
X036431Y027441D01*
X038355Y027442D02*
X038355Y027206D01*
X038355Y027442D02*
X038906Y027442D01*
X038906Y026419D01*
X038945Y026419D02*
X038945Y026576D01*
X038985Y026576D02*
X038985Y026379D01*
X039142Y026379D01*
X039142Y026576D01*
X038985Y026419D02*
X038945Y026419D01*
X038985Y026379D02*
X038355Y026379D01*
X038355Y026576D01*
X038945Y027206D02*
X038945Y027442D01*
X038906Y027442D01*
X038945Y027442D02*
X038985Y027442D01*
X038985Y027206D01*
X039142Y027206D02*
X039142Y027442D01*
X038985Y027442D01*
X036931Y023291D02*
X036431Y023291D01*
X036431Y021941D01*
X036931Y021941D01*
X036931Y022441D01*
X036931Y022841D02*
X036931Y023291D01*
X038605Y021942D02*
X038605Y021706D01*
X038605Y021942D02*
X039156Y021942D01*
X039156Y020919D01*
X039195Y020919D02*
X039195Y021076D01*
X039235Y021076D02*
X039235Y020879D01*
X039392Y020879D01*
X039392Y021076D01*
X039235Y020919D02*
X039195Y020919D01*
X039235Y020879D02*
X038605Y020879D01*
X038605Y021076D01*
X039195Y021706D02*
X039195Y021942D01*
X039156Y021942D01*
X039195Y021942D02*
X039235Y021942D01*
X039235Y021706D01*
X039392Y021706D02*
X039392Y021942D01*
X039235Y021942D01*
X044285Y032691D02*
X044285Y002041D01*
X041435Y002041D01*
X041435Y000141D01*
X041985Y000141D01*
X023935Y000141D02*
X023935Y003141D01*
X022435Y003141D01*
X022435Y000141D01*
X004935Y000141D02*
X004385Y000141D01*
X004935Y000141D02*
X004935Y002041D01*
X018881Y027041D02*
X019031Y027041D01*
X018881Y027041D02*
X018881Y028341D01*
X018981Y028341D01*
X016135Y045141D02*
X014635Y045141D01*
X013135Y045141D01*
X044285Y032691D02*
X045185Y032691D01*
X045185Y045141D01*
D13*
X033085Y018809D02*
X033161Y018733D01*
X033161Y018579D01*
X033085Y018503D01*
X032931Y018579D02*
X032931Y018733D01*
X033008Y018809D01*
X033085Y018809D01*
X032931Y018579D02*
X032855Y018503D01*
X032778Y018503D01*
X032701Y018579D01*
X032701Y018733D01*
X032778Y018809D01*
X032701Y018349D02*
X033161Y018349D01*
X033161Y018042D02*
X032701Y018042D01*
X032855Y018196D01*
X032701Y018349D01*
X032778Y017889D02*
X032855Y017889D01*
X032931Y017812D01*
X032931Y017582D01*
X032931Y017428D02*
X032931Y017121D01*
X032701Y016968D02*
X033161Y016661D01*
X033161Y016968D02*
X032701Y016661D01*
X032701Y017582D02*
X032701Y017812D01*
X032778Y017889D01*
X032931Y017812D02*
X033008Y017889D01*
X033085Y017889D01*
X033161Y017812D01*
X033161Y017582D01*
X032701Y017582D01*
X011719Y035411D02*
X011412Y035411D01*
X011565Y035411D02*
X011565Y035871D01*
X011412Y035718D01*
X011258Y035411D02*
X010951Y035411D01*
X010951Y035871D01*
D14*
X013157Y035395D02*
X013157Y035248D01*
X013194Y035211D01*
X013268Y035211D01*
X013304Y035248D01*
X013378Y035211D02*
X013378Y035431D01*
X013452Y035358D01*
X013525Y035431D01*
X013525Y035211D01*
X013599Y035211D02*
X013599Y035431D01*
X013599Y035321D02*
X013746Y035321D01*
X013820Y035248D02*
X013820Y035211D01*
X013967Y035211D01*
X013820Y035248D02*
X013967Y035395D01*
X013967Y035431D01*
X013820Y035431D01*
X013746Y035431D02*
X013746Y035211D01*
X013304Y035395D02*
X013268Y035431D01*
X013194Y035431D01*
X013157Y035395D01*
X013157Y036711D02*
X013268Y036711D01*
X013304Y036748D01*
X013304Y036784D01*
X013268Y036821D01*
X013157Y036821D01*
X013157Y036711D02*
X013157Y036931D01*
X013268Y036931D01*
X013304Y036895D01*
X013304Y036858D01*
X013268Y036821D01*
X013378Y036821D02*
X013525Y036821D01*
X013525Y036858D02*
X013525Y036711D01*
X013378Y036711D02*
X013378Y036858D01*
X013452Y036931D01*
X013525Y036858D01*
X013599Y036931D02*
X013746Y036931D01*
X013673Y036931D02*
X013673Y036711D01*
X013820Y036821D02*
X013967Y036821D01*
X013931Y036711D02*
X013931Y036931D01*
X013820Y036821D01*
X013857Y038211D02*
X013820Y038248D01*
X013857Y038211D02*
X013931Y038211D01*
X013967Y038248D01*
X013967Y038284D01*
X013931Y038321D01*
X013894Y038321D01*
X013931Y038321D02*
X013967Y038358D01*
X013967Y038395D01*
X013931Y038431D01*
X013857Y038431D01*
X013820Y038395D01*
X013746Y038431D02*
X013599Y038431D01*
X013673Y038431D02*
X013673Y038211D01*
X013525Y038211D02*
X013525Y038358D01*
X013452Y038431D01*
X013378Y038358D01*
X013378Y038211D01*
X013304Y038248D02*
X013268Y038211D01*
X013157Y038211D01*
X013157Y038431D01*
X013268Y038431D01*
X013304Y038395D01*
X013304Y038358D01*
X013268Y038321D01*
X013157Y038321D01*
X013268Y038321D02*
X013304Y038284D01*
X013304Y038248D01*
X013378Y038321D02*
X013525Y038321D01*
X015941Y035621D02*
X016051Y035621D01*
X016088Y035585D01*
X016088Y035511D01*
X016051Y035474D01*
X015941Y035474D01*
X015941Y035401D02*
X015941Y035621D01*
X016015Y035474D02*
X016088Y035401D01*
X016162Y035438D02*
X016199Y035401D01*
X016272Y035401D01*
X016309Y035438D01*
X016309Y035511D01*
X016272Y035548D01*
X016236Y035548D01*
X016162Y035511D01*
X016162Y035621D01*
X016309Y035621D01*
X017941Y035621D02*
X018051Y035621D01*
X018088Y035585D01*
X018088Y035511D01*
X018051Y035474D01*
X017941Y035474D01*
X017941Y035401D02*
X017941Y035621D01*
X018015Y035474D02*
X018088Y035401D01*
X018162Y035438D02*
X018199Y035401D01*
X018272Y035401D01*
X018309Y035438D01*
X018309Y035474D01*
X018272Y035511D01*
X018162Y035511D01*
X018162Y035438D01*
X018162Y035511D02*
X018236Y035585D01*
X018309Y035621D01*
X019941Y035621D02*
X020051Y035621D01*
X020088Y035585D01*
X020088Y035511D01*
X020051Y035474D01*
X019941Y035474D01*
X019941Y035401D02*
X019941Y035621D01*
X020015Y035474D02*
X020088Y035401D01*
X020162Y035401D02*
X020162Y035438D01*
X020309Y035585D01*
X020309Y035621D01*
X020162Y035621D01*
X020978Y036401D02*
X021051Y036401D01*
X021088Y036438D01*
X021162Y036511D02*
X021309Y036511D01*
X021272Y036401D02*
X021272Y036621D01*
X021162Y036511D01*
X021088Y036585D02*
X021051Y036621D01*
X020978Y036621D01*
X020941Y036585D01*
X020941Y036438D01*
X020978Y036401D01*
X020921Y037901D02*
X020701Y037901D01*
X020701Y038011D01*
X020738Y038048D01*
X020811Y038048D01*
X020848Y038011D01*
X020848Y037901D01*
X020848Y037974D02*
X020921Y038048D01*
X020921Y038122D02*
X020921Y038269D01*
X020921Y038195D02*
X020701Y038195D01*
X020775Y038122D01*
X020738Y038343D02*
X020701Y038380D01*
X020701Y038453D01*
X020738Y038490D01*
X020885Y038343D01*
X020921Y038380D01*
X020921Y038453D01*
X020885Y038490D01*
X020738Y038490D01*
X020738Y038343D02*
X020885Y038343D01*
X023141Y035321D02*
X023141Y035101D01*
X023288Y035101D01*
X023436Y035101D02*
X023436Y035321D01*
X023509Y035321D02*
X023362Y035321D01*
X023583Y035285D02*
X023583Y035138D01*
X023620Y035101D01*
X023693Y035101D01*
X023730Y035138D01*
X023804Y035101D02*
X023951Y035101D01*
X023878Y035101D02*
X023878Y035321D01*
X023804Y035248D01*
X023730Y035285D02*
X023693Y035321D01*
X023620Y035321D01*
X023583Y035285D01*
X024025Y035211D02*
X024135Y035211D01*
X024172Y035174D01*
X024172Y035138D01*
X024135Y035101D01*
X024062Y035101D01*
X024025Y035138D01*
X024025Y035211D01*
X024099Y035285D01*
X024172Y035321D01*
X024246Y035285D02*
X024246Y035248D01*
X024283Y035211D01*
X024393Y035211D01*
X024393Y035138D02*
X024393Y035285D01*
X024356Y035321D01*
X024283Y035321D01*
X024246Y035285D01*
X024246Y035138D02*
X024283Y035101D01*
X024356Y035101D01*
X024393Y035138D01*
X024467Y035138D02*
X024504Y035101D01*
X024577Y035101D01*
X024614Y035138D01*
X024614Y035174D01*
X024577Y035211D01*
X024541Y035211D01*
X024577Y035211D02*
X024614Y035248D01*
X024614Y035285D01*
X024577Y035321D01*
X024504Y035321D01*
X024467Y035285D01*
X025778Y034881D02*
X025778Y034661D01*
X025778Y034734D02*
X025889Y034734D01*
X025925Y034771D01*
X025925Y034845D01*
X025889Y034881D01*
X025778Y034881D01*
X025852Y034734D02*
X025925Y034661D01*
X025999Y034661D02*
X026146Y034661D01*
X026073Y034661D02*
X026073Y034881D01*
X025999Y034808D01*
X026220Y034845D02*
X026257Y034881D01*
X026331Y034881D01*
X026367Y034845D01*
X026367Y034808D01*
X026220Y034661D01*
X026367Y034661D01*
X027999Y033845D02*
X027999Y033698D01*
X028036Y033661D01*
X028110Y033661D01*
X028146Y033698D01*
X028220Y033698D02*
X028257Y033661D01*
X028331Y033661D01*
X028367Y033698D01*
X028367Y033734D01*
X028331Y033771D01*
X028294Y033771D01*
X028331Y033771D02*
X028367Y033808D01*
X028367Y033845D01*
X028331Y033881D01*
X028257Y033881D01*
X028220Y033845D01*
X028146Y033845D02*
X028110Y033881D01*
X028036Y033881D01*
X027999Y033845D01*
X028036Y035661D02*
X028110Y035661D01*
X028146Y035698D01*
X028220Y035698D02*
X028220Y035734D01*
X028257Y035771D01*
X028331Y035771D01*
X028367Y035734D01*
X028367Y035698D01*
X028331Y035661D01*
X028257Y035661D01*
X028220Y035698D01*
X028257Y035771D02*
X028220Y035808D01*
X028220Y035845D01*
X028257Y035881D01*
X028331Y035881D01*
X028367Y035845D01*
X028367Y035808D01*
X028331Y035771D01*
X028146Y035845D02*
X028110Y035881D01*
X028036Y035881D01*
X027999Y035845D01*
X027999Y035698D01*
X028036Y035661D01*
X027220Y036661D02*
X027220Y036698D01*
X027367Y036845D01*
X027367Y036881D01*
X027220Y036881D01*
X027146Y036845D02*
X027110Y036881D01*
X027036Y036881D01*
X026999Y036845D01*
X026999Y036698D01*
X027036Y036661D01*
X027110Y036661D01*
X027146Y036698D01*
X026993Y038401D02*
X026993Y038621D01*
X026883Y038511D01*
X027030Y038511D01*
X026999Y038661D02*
X027146Y038661D01*
X027073Y038661D02*
X027073Y038881D01*
X026999Y038808D01*
X026925Y038845D02*
X026925Y038771D01*
X026889Y038734D01*
X026778Y038734D01*
X026778Y038661D02*
X026778Y038881D01*
X026889Y038881D01*
X026925Y038845D01*
X026852Y038734D02*
X026925Y038661D01*
X026736Y038621D02*
X026736Y038401D01*
X026809Y038401D02*
X026662Y038401D01*
X026588Y038401D02*
X026515Y038474D01*
X026551Y038474D02*
X026441Y038474D01*
X026441Y038401D02*
X026441Y038621D01*
X026551Y038621D01*
X026588Y038585D01*
X026588Y038511D01*
X026551Y038474D01*
X026662Y038548D02*
X026736Y038621D01*
X027220Y038698D02*
X027257Y038661D01*
X027331Y038661D01*
X027367Y038698D01*
X027367Y038771D01*
X027331Y038808D01*
X027294Y038808D01*
X027220Y038771D01*
X027220Y038881D01*
X027367Y038881D01*
X029036Y036881D02*
X028999Y036845D01*
X028999Y036698D01*
X029036Y036661D01*
X029110Y036661D01*
X029146Y036698D01*
X029220Y036698D02*
X029257Y036661D01*
X029331Y036661D01*
X029367Y036698D01*
X029367Y036845D01*
X029331Y036881D01*
X029257Y036881D01*
X029220Y036845D01*
X029220Y036808D01*
X029257Y036771D01*
X029367Y036771D01*
X029146Y036845D02*
X029110Y036881D01*
X029036Y036881D01*
X023457Y032121D02*
X023457Y031901D01*
X023530Y031901D02*
X023383Y031901D01*
X023309Y031901D02*
X023162Y031901D01*
X023236Y031901D02*
X023236Y032121D01*
X023162Y032048D01*
X023088Y032085D02*
X023088Y032011D01*
X023051Y031974D01*
X022941Y031974D01*
X022941Y031901D02*
X022941Y032121D01*
X023051Y032121D01*
X023088Y032085D01*
X023015Y031974D02*
X023088Y031901D01*
X023383Y032048D02*
X023457Y032121D01*
X023309Y031121D02*
X023162Y031121D01*
X023162Y031011D01*
X023236Y031048D01*
X023272Y031048D01*
X023309Y031011D01*
X023309Y030938D01*
X023272Y030901D01*
X023199Y030901D01*
X023162Y030938D01*
X023088Y030938D02*
X023051Y030901D01*
X022978Y030901D01*
X022941Y030938D01*
X022941Y031085D01*
X022978Y031121D01*
X023051Y031121D01*
X023088Y031085D01*
X019421Y031048D02*
X019348Y030974D01*
X019348Y031011D02*
X019348Y030901D01*
X019421Y030901D02*
X019201Y030901D01*
X019201Y031011D01*
X019238Y031048D01*
X019311Y031048D01*
X019348Y031011D01*
X019385Y031122D02*
X019421Y031159D01*
X019421Y031232D01*
X019385Y031269D01*
X019238Y031269D01*
X019201Y031232D01*
X019201Y031159D01*
X019238Y031122D01*
X019275Y031122D01*
X019311Y031159D01*
X019311Y031269D01*
X018421Y031232D02*
X018421Y031159D01*
X018385Y031122D01*
X018348Y031122D01*
X018311Y031159D01*
X018311Y031232D01*
X018348Y031269D01*
X018385Y031269D01*
X018421Y031232D01*
X018311Y031232D02*
X018275Y031269D01*
X018238Y031269D01*
X018201Y031232D01*
X018201Y031159D01*
X018238Y031122D01*
X018275Y031122D01*
X018311Y031159D01*
X018311Y031048D02*
X018348Y031011D01*
X018348Y030901D01*
X018421Y030901D02*
X018201Y030901D01*
X018201Y031011D01*
X018238Y031048D01*
X018311Y031048D01*
X018348Y030974D02*
X018421Y031048D01*
X017421Y031048D02*
X017348Y030974D01*
X017348Y031011D02*
X017348Y030901D01*
X017421Y030901D02*
X017201Y030901D01*
X017201Y031011D01*
X017238Y031048D01*
X017311Y031048D01*
X017348Y031011D01*
X017311Y031122D02*
X017311Y031269D01*
X017201Y031232D02*
X017311Y031122D01*
X017421Y031232D02*
X017201Y031232D01*
X015161Y031775D02*
X015161Y031848D01*
X015125Y031885D01*
X015161Y031959D02*
X015015Y032106D01*
X014978Y032106D01*
X014941Y032069D01*
X014941Y031996D01*
X014978Y031959D01*
X014978Y031885D02*
X014941Y031848D01*
X014941Y031775D01*
X014978Y031738D01*
X015125Y031738D01*
X015161Y031775D01*
X015161Y031959D02*
X015161Y032106D01*
X015161Y032180D02*
X015161Y032327D01*
X015161Y032254D02*
X014941Y032254D01*
X015015Y032180D01*
X013921Y032122D02*
X013885Y032122D01*
X013738Y032269D01*
X013701Y032269D01*
X013701Y032122D01*
X013738Y032048D02*
X013811Y032048D01*
X013848Y032011D01*
X013848Y031901D01*
X013921Y031901D02*
X013701Y031901D01*
X013701Y032011D01*
X013738Y032048D01*
X013848Y031974D02*
X013921Y032048D01*
X013885Y032343D02*
X013921Y032380D01*
X013921Y032453D01*
X013885Y032490D01*
X013811Y032490D01*
X013775Y032453D01*
X013775Y032416D01*
X013811Y032343D01*
X013701Y032343D01*
X013701Y032490D01*
X012722Y033001D02*
X012575Y033001D01*
X012722Y033148D01*
X012722Y033185D01*
X012685Y033221D01*
X012612Y033221D01*
X012575Y033185D01*
X012428Y033221D02*
X012428Y033001D01*
X012501Y033001D02*
X012354Y033001D01*
X012280Y033038D02*
X012280Y033185D01*
X012243Y033221D01*
X012133Y033221D01*
X012133Y033001D01*
X012243Y033001D01*
X012280Y033038D01*
X012354Y033148D02*
X012428Y033221D01*
X012059Y033221D02*
X011912Y033221D01*
X011912Y033001D01*
X012059Y033001D01*
X011986Y033111D02*
X011912Y033111D01*
X011838Y033001D02*
X011691Y033001D01*
X011691Y033221D01*
X014082Y030456D02*
X014046Y030419D01*
X014046Y030346D01*
X014082Y030309D01*
X014082Y030456D02*
X014119Y030456D01*
X014266Y030309D01*
X014266Y030456D01*
X014266Y030235D02*
X014266Y030088D01*
X014266Y030162D02*
X014046Y030162D01*
X014119Y030088D01*
X014046Y030014D02*
X014046Y029867D01*
X014046Y029941D02*
X014266Y029941D01*
X014309Y029121D02*
X014309Y029085D01*
X014162Y028938D01*
X014162Y028901D01*
X014088Y028901D02*
X014015Y028974D01*
X014051Y028974D02*
X013941Y028974D01*
X013941Y028901D02*
X013941Y029121D01*
X014051Y029121D01*
X014088Y029085D01*
X014088Y029011D01*
X014051Y028974D01*
X014162Y029121D02*
X014309Y029121D01*
X014383Y029011D02*
X014383Y028938D01*
X014420Y028901D01*
X014493Y028901D01*
X014530Y028938D01*
X014530Y028974D01*
X014493Y029011D01*
X014383Y029011D01*
X014457Y029085D01*
X014530Y029121D01*
X012649Y027721D02*
X012649Y027501D01*
X012722Y027501D02*
X012575Y027501D01*
X012501Y027501D02*
X012354Y027501D01*
X012428Y027501D02*
X012428Y027721D01*
X012354Y027648D01*
X012280Y027685D02*
X012243Y027721D01*
X012133Y027721D01*
X012133Y027501D01*
X012243Y027501D01*
X012280Y027538D01*
X012280Y027685D01*
X012059Y027721D02*
X011912Y027721D01*
X011912Y027501D01*
X012059Y027501D01*
X011986Y027611D02*
X011912Y027611D01*
X011838Y027501D02*
X011691Y027501D01*
X011691Y027721D01*
X012575Y027648D02*
X012649Y027721D01*
X014201Y026953D02*
X014238Y026990D01*
X014385Y026843D01*
X014421Y026880D01*
X014421Y026953D01*
X014385Y026990D01*
X014238Y026990D01*
X014201Y026953D02*
X014201Y026880D01*
X014238Y026843D01*
X014385Y026843D01*
X014238Y026769D02*
X014385Y026622D01*
X014421Y026622D01*
X014421Y026548D02*
X014348Y026474D01*
X014348Y026511D02*
X014348Y026401D01*
X014421Y026401D02*
X014201Y026401D01*
X014201Y026511D01*
X014238Y026548D01*
X014311Y026548D01*
X014348Y026511D01*
X014201Y026622D02*
X014201Y026769D01*
X014238Y026769D01*
X015441Y026790D02*
X015441Y026717D01*
X015478Y026680D01*
X015625Y026680D01*
X015478Y026827D01*
X015625Y026827D01*
X015661Y026790D01*
X015661Y026717D01*
X015625Y026680D01*
X015661Y026606D02*
X015661Y026459D01*
X015515Y026606D01*
X015478Y026606D01*
X015441Y026569D01*
X015441Y026496D01*
X015478Y026459D01*
X015478Y026385D02*
X015441Y026348D01*
X015441Y026275D01*
X015478Y026238D01*
X015625Y026238D01*
X015661Y026275D01*
X015661Y026348D01*
X015625Y026385D01*
X015441Y026790D02*
X015478Y026827D01*
X014266Y024956D02*
X014266Y024809D01*
X014266Y024883D02*
X014046Y024883D01*
X014119Y024809D01*
X014266Y024735D02*
X014266Y024588D01*
X014266Y024662D02*
X014046Y024662D01*
X014119Y024588D01*
X014046Y024514D02*
X014046Y024367D01*
X014046Y024441D02*
X014266Y024441D01*
X014941Y023254D02*
X015161Y023254D01*
X015161Y023327D02*
X015161Y023180D01*
X015015Y023180D02*
X014941Y023254D01*
X014941Y023106D02*
X014978Y023106D01*
X015125Y022959D01*
X015161Y022959D01*
X015161Y022885D02*
X015088Y022812D01*
X015088Y022848D02*
X015088Y022738D01*
X015161Y022738D02*
X014941Y022738D01*
X014941Y022848D01*
X014978Y022885D01*
X015051Y022885D01*
X015088Y022848D01*
X014941Y022959D02*
X014941Y023106D01*
X014385Y021490D02*
X014311Y021490D01*
X014275Y021453D01*
X014275Y021416D01*
X014311Y021343D01*
X014201Y021343D01*
X014201Y021490D01*
X014385Y021490D02*
X014421Y021453D01*
X014421Y021380D01*
X014385Y021343D01*
X014385Y021269D02*
X014348Y021269D01*
X014311Y021232D01*
X014311Y021122D01*
X014385Y021122D01*
X014421Y021159D01*
X014421Y021232D01*
X014385Y021269D01*
X014238Y021195D02*
X014311Y021122D01*
X014311Y021048D02*
X014348Y021011D01*
X014348Y020901D01*
X014421Y020901D02*
X014201Y020901D01*
X014201Y021011D01*
X014238Y021048D01*
X014311Y021048D01*
X014348Y020974D02*
X014421Y021048D01*
X014238Y021195D02*
X014201Y021269D01*
X014229Y019956D02*
X014266Y019919D01*
X014266Y019846D01*
X014229Y019809D01*
X014082Y019956D01*
X014229Y019956D01*
X014082Y019956D02*
X014046Y019919D01*
X014046Y019846D01*
X014082Y019809D01*
X014229Y019809D01*
X014266Y019735D02*
X014266Y019588D01*
X014266Y019662D02*
X014046Y019662D01*
X014119Y019588D01*
X014046Y019514D02*
X014046Y019367D01*
X014046Y019441D02*
X014266Y019441D01*
X014941Y018327D02*
X014978Y018254D01*
X015051Y018180D01*
X015051Y018290D01*
X015088Y018327D01*
X015125Y018327D01*
X015161Y018290D01*
X015161Y018217D01*
X015125Y018180D01*
X015051Y018180D01*
X015088Y018106D02*
X015051Y018069D01*
X015051Y017959D01*
X015125Y017959D01*
X015161Y017996D01*
X015161Y018069D01*
X015125Y018106D01*
X015088Y018106D01*
X014978Y018033D02*
X015051Y017959D01*
X015051Y017885D02*
X015088Y017848D01*
X015088Y017738D01*
X015161Y017738D02*
X014941Y017738D01*
X014941Y017848D01*
X014978Y017885D01*
X015051Y017885D01*
X015088Y017812D02*
X015161Y017885D01*
X014978Y018033D02*
X014941Y018106D01*
X014385Y016490D02*
X014238Y016490D01*
X014385Y016343D01*
X014421Y016380D01*
X014421Y016453D01*
X014385Y016490D01*
X014385Y016343D02*
X014238Y016343D01*
X014201Y016380D01*
X014201Y016453D01*
X014238Y016490D01*
X014201Y016269D02*
X014238Y016195D01*
X014311Y016122D01*
X014311Y016232D01*
X014348Y016269D01*
X014385Y016269D01*
X014421Y016232D01*
X014421Y016159D01*
X014385Y016122D01*
X014311Y016122D01*
X014311Y016048D02*
X014348Y016011D01*
X014348Y015901D01*
X014421Y015901D02*
X014201Y015901D01*
X014201Y016011D01*
X014238Y016048D01*
X014311Y016048D01*
X014348Y015974D02*
X014421Y016048D01*
X015441Y016033D02*
X015661Y016033D01*
X015661Y016106D02*
X015661Y015959D01*
X015625Y015885D02*
X015661Y015848D01*
X015661Y015775D01*
X015625Y015738D01*
X015478Y015738D01*
X015441Y015775D01*
X015441Y015848D01*
X015478Y015885D01*
X015515Y015959D02*
X015441Y016033D01*
X015478Y016180D02*
X015515Y016180D01*
X015551Y016217D01*
X015551Y016290D01*
X015588Y016327D01*
X015625Y016327D01*
X015661Y016290D01*
X015661Y016217D01*
X015625Y016180D01*
X015588Y016180D01*
X015551Y016217D01*
X015551Y016290D02*
X015515Y016327D01*
X015478Y016327D01*
X015441Y016290D01*
X015441Y016217D01*
X015478Y016180D01*
X014229Y014735D02*
X014082Y014735D01*
X014046Y014698D01*
X014046Y014625D01*
X014082Y014588D01*
X014119Y014588D01*
X014156Y014625D01*
X014156Y014735D01*
X014229Y014735D02*
X014266Y014698D01*
X014266Y014625D01*
X014229Y014588D01*
X014266Y014441D02*
X014046Y014441D01*
X014046Y014514D02*
X014046Y014367D01*
X015441Y014254D02*
X015661Y014254D01*
X015661Y014327D02*
X015661Y014180D01*
X015625Y014106D02*
X015588Y014106D01*
X015551Y014069D01*
X015551Y013959D01*
X015625Y013959D01*
X015661Y013996D01*
X015661Y014069D01*
X015625Y014106D01*
X015515Y014180D02*
X015441Y014254D01*
X015441Y014106D02*
X015478Y014033D01*
X015551Y013959D01*
X015551Y013885D02*
X015588Y013848D01*
X015588Y013738D01*
X015661Y013738D02*
X015441Y013738D01*
X015441Y013848D01*
X015478Y013885D01*
X015551Y013885D01*
X015588Y013812D02*
X015661Y013885D01*
X015530Y012621D02*
X015530Y012585D01*
X015383Y012438D01*
X015383Y012401D01*
X015309Y012401D02*
X015162Y012401D01*
X015236Y012401D02*
X015236Y012621D01*
X015162Y012548D01*
X015088Y012585D02*
X015051Y012621D01*
X014978Y012621D01*
X014941Y012585D01*
X014941Y012438D01*
X014978Y012401D01*
X015051Y012401D01*
X015088Y012438D01*
X015383Y012621D02*
X015530Y012621D01*
X015367Y011381D02*
X015220Y011381D01*
X015220Y011271D01*
X015294Y011308D01*
X015331Y011308D01*
X015367Y011271D01*
X015367Y011198D01*
X015331Y011161D01*
X015257Y011161D01*
X015220Y011198D01*
X015146Y011198D02*
X015110Y011161D01*
X015036Y011161D01*
X014999Y011198D01*
X014999Y011271D02*
X015073Y011308D01*
X015110Y011308D01*
X015146Y011271D01*
X015146Y011198D01*
X014999Y011271D02*
X014999Y011381D01*
X015146Y011381D01*
X014925Y011345D02*
X014925Y011271D01*
X014889Y011234D01*
X014778Y011234D01*
X014778Y011161D02*
X014778Y011381D01*
X014889Y011381D01*
X014925Y011345D01*
X014852Y011234D02*
X014925Y011161D01*
X014285Y009711D02*
X014321Y009674D01*
X014321Y009601D01*
X014285Y009564D01*
X014248Y009564D01*
X014211Y009601D01*
X014211Y009674D01*
X014248Y009711D01*
X014285Y009711D01*
X014211Y009674D02*
X014175Y009711D01*
X014138Y009711D01*
X014101Y009674D01*
X014101Y009601D01*
X014138Y009564D01*
X014175Y009564D01*
X014211Y009601D01*
X014138Y009490D02*
X014101Y009453D01*
X014101Y009343D01*
X014321Y009343D01*
X014321Y009453D01*
X014285Y009490D01*
X014138Y009490D01*
X014101Y009269D02*
X014101Y009122D01*
X014321Y009122D01*
X014321Y009269D01*
X014211Y009195D02*
X014211Y009122D01*
X014321Y009048D02*
X014321Y008901D01*
X014101Y008901D01*
X016607Y011006D02*
X016607Y011226D01*
X016680Y011226D02*
X016533Y011226D01*
X016754Y011189D02*
X016754Y011152D01*
X016791Y011116D01*
X016864Y011116D01*
X016901Y011079D01*
X016901Y011042D01*
X016864Y011006D01*
X016791Y011006D01*
X016754Y011042D01*
X016754Y011079D01*
X016791Y011116D01*
X016864Y011116D02*
X016901Y011152D01*
X016901Y011189D01*
X016864Y011226D01*
X016791Y011226D01*
X016754Y011189D01*
X017941Y011901D02*
X017941Y012121D01*
X018051Y012121D01*
X018088Y012085D01*
X018088Y012011D01*
X018051Y011974D01*
X017941Y011974D01*
X018015Y011974D02*
X018088Y011901D01*
X018162Y011938D02*
X018199Y011901D01*
X018272Y011901D01*
X018309Y011938D01*
X018309Y012011D01*
X018272Y012048D01*
X018236Y012048D01*
X018162Y012011D01*
X018162Y012121D01*
X018309Y012121D01*
X018383Y012011D02*
X018493Y012011D01*
X018530Y011974D01*
X018530Y011938D01*
X018493Y011901D01*
X018420Y011901D01*
X018383Y011938D01*
X018383Y012011D01*
X018457Y012085D01*
X018530Y012121D01*
X020278Y011381D02*
X020278Y011161D01*
X020278Y011234D02*
X020389Y011234D01*
X020425Y011271D01*
X020425Y011345D01*
X020389Y011381D01*
X020278Y011381D01*
X020352Y011234D02*
X020425Y011161D01*
X020499Y011198D02*
X020536Y011161D01*
X020610Y011161D01*
X020646Y011198D01*
X020646Y011271D01*
X020610Y011308D01*
X020573Y011308D01*
X020499Y011271D01*
X020499Y011381D01*
X020646Y011381D01*
X020720Y011345D02*
X020757Y011381D01*
X020831Y011381D01*
X020867Y011345D01*
X020720Y011198D01*
X020757Y011161D01*
X020831Y011161D01*
X020867Y011198D01*
X020867Y011345D01*
X020720Y011345D02*
X020720Y011198D01*
X020736Y012401D02*
X020736Y012621D01*
X020662Y012548D01*
X020588Y012585D02*
X020551Y012621D01*
X020478Y012621D01*
X020441Y012585D01*
X020441Y012438D01*
X020478Y012401D01*
X020551Y012401D01*
X020588Y012438D01*
X020662Y012401D02*
X020809Y012401D01*
X020883Y012438D02*
X020920Y012401D01*
X020993Y012401D01*
X021030Y012438D01*
X021030Y012474D01*
X020993Y012511D01*
X020883Y012511D01*
X020883Y012438D01*
X020883Y012511D02*
X020957Y012585D01*
X021030Y012621D01*
X022033Y011226D02*
X022180Y011226D01*
X022107Y011226D02*
X022107Y011006D01*
X022254Y011006D02*
X022254Y011042D01*
X022401Y011189D01*
X022401Y011226D01*
X022254Y011226D01*
X023441Y011901D02*
X023441Y012121D01*
X023551Y012121D01*
X023588Y012085D01*
X023588Y012011D01*
X023551Y011974D01*
X023441Y011974D01*
X023515Y011974D02*
X023588Y011901D01*
X023662Y011938D02*
X023699Y011901D01*
X023772Y011901D01*
X023809Y011938D01*
X023809Y012011D01*
X023772Y012048D01*
X023736Y012048D01*
X023662Y012011D01*
X023662Y012121D01*
X023809Y012121D01*
X023883Y012048D02*
X023957Y012121D01*
X023957Y011901D01*
X024030Y011901D02*
X023883Y011901D01*
X025778Y011381D02*
X025778Y011161D01*
X025778Y011234D02*
X025889Y011234D01*
X025925Y011271D01*
X025925Y011345D01*
X025889Y011381D01*
X025778Y011381D01*
X025852Y011234D02*
X025925Y011161D01*
X025999Y011271D02*
X026110Y011381D01*
X026110Y011161D01*
X026146Y011271D02*
X025999Y011271D01*
X026220Y011271D02*
X026294Y011308D01*
X026331Y011308D01*
X026367Y011271D01*
X026367Y011198D01*
X026331Y011161D01*
X026257Y011161D01*
X026220Y011198D01*
X026220Y011271D02*
X026220Y011381D01*
X026367Y011381D01*
X026420Y012401D02*
X026383Y012438D01*
X026420Y012401D02*
X026493Y012401D01*
X026530Y012438D01*
X026530Y012511D01*
X026493Y012548D01*
X026457Y012548D01*
X026383Y012511D01*
X026383Y012621D01*
X026530Y012621D01*
X026236Y012621D02*
X026236Y012401D01*
X026309Y012401D02*
X026162Y012401D01*
X026088Y012438D02*
X026051Y012401D01*
X025978Y012401D01*
X025941Y012438D01*
X025941Y012585D01*
X025978Y012621D01*
X026051Y012621D01*
X026088Y012585D01*
X026162Y012548D02*
X026236Y012621D01*
X027533Y011226D02*
X027680Y011226D01*
X027607Y011226D02*
X027607Y011006D01*
X027754Y011042D02*
X027791Y011006D01*
X027864Y011006D01*
X027901Y011042D01*
X027901Y011079D01*
X027864Y011116D01*
X027754Y011116D01*
X027754Y011042D01*
X027754Y011116D02*
X027828Y011189D01*
X027901Y011226D01*
X028941Y011901D02*
X028941Y012121D01*
X029051Y012121D01*
X029088Y012085D01*
X029088Y012011D01*
X029051Y011974D01*
X028941Y011974D01*
X029015Y011974D02*
X029088Y011901D01*
X029162Y012011D02*
X029309Y012011D01*
X029383Y012011D02*
X029493Y012011D01*
X029530Y011974D01*
X029530Y011938D01*
X029493Y011901D01*
X029420Y011901D01*
X029383Y011938D01*
X029383Y012011D01*
X029457Y012085D01*
X029530Y012121D01*
X029272Y012121D02*
X029162Y012011D01*
X029272Y011901D02*
X029272Y012121D01*
X030778Y011381D02*
X030778Y011161D01*
X030778Y011234D02*
X030889Y011234D01*
X030925Y011271D01*
X030925Y011345D01*
X030889Y011381D01*
X030778Y011381D01*
X030852Y011234D02*
X030925Y011161D01*
X030999Y011271D02*
X031146Y011271D01*
X031220Y011198D02*
X031367Y011345D01*
X031367Y011198D01*
X031331Y011161D01*
X031257Y011161D01*
X031220Y011198D01*
X031220Y011345D01*
X031257Y011381D01*
X031331Y011381D01*
X031367Y011345D01*
X031110Y011381D02*
X030999Y011271D01*
X031110Y011161D02*
X031110Y011381D01*
X031162Y012401D02*
X031309Y012401D01*
X031236Y012401D02*
X031236Y012621D01*
X031162Y012548D01*
X031088Y012585D02*
X031051Y012621D01*
X030978Y012621D01*
X030941Y012585D01*
X030941Y012438D01*
X030978Y012401D01*
X031051Y012401D01*
X031088Y012438D01*
X031383Y012511D02*
X031530Y012511D01*
X031493Y012401D02*
X031493Y012621D01*
X031383Y012511D01*
X032533Y011226D02*
X032680Y011226D01*
X032607Y011226D02*
X032607Y011006D01*
X032754Y011042D02*
X032791Y011006D01*
X032864Y011006D01*
X032901Y011042D01*
X032901Y011116D01*
X032864Y011152D01*
X032828Y011152D01*
X032754Y011116D01*
X032754Y011226D01*
X032901Y011226D01*
X033701Y011901D02*
X033701Y012011D01*
X033738Y012048D01*
X033811Y012048D01*
X033848Y012011D01*
X033848Y011901D01*
X033921Y011901D02*
X033701Y011901D01*
X033848Y011974D02*
X033921Y012048D01*
X033811Y012122D02*
X033811Y012269D01*
X033775Y012343D02*
X033701Y012416D01*
X033921Y012416D01*
X033921Y012343D02*
X033921Y012490D01*
X033921Y012232D02*
X033701Y012232D01*
X033811Y012122D01*
X035201Y012195D02*
X035421Y012195D01*
X035421Y012122D02*
X035421Y012269D01*
X035385Y012343D02*
X035421Y012380D01*
X035421Y012453D01*
X035385Y012490D01*
X035348Y012490D01*
X035311Y012453D01*
X035311Y012416D01*
X035311Y012453D02*
X035275Y012490D01*
X035238Y012490D01*
X035201Y012453D01*
X035201Y012380D01*
X035238Y012343D01*
X035201Y012195D02*
X035275Y012122D01*
X035238Y012048D02*
X035201Y012011D01*
X035201Y011938D01*
X035238Y011901D01*
X035385Y011901D01*
X035421Y011938D01*
X035421Y012011D01*
X035385Y012048D01*
X035385Y010990D02*
X035421Y010953D01*
X035421Y010880D01*
X035385Y010843D01*
X035311Y010843D02*
X035275Y010916D01*
X035275Y010953D01*
X035311Y010990D01*
X035385Y010990D01*
X035311Y010843D02*
X035201Y010843D01*
X035201Y010990D01*
X035238Y010769D02*
X035275Y010769D01*
X035311Y010732D01*
X035348Y010769D01*
X035385Y010769D01*
X035421Y010732D01*
X035421Y010659D01*
X035385Y010622D01*
X035421Y010548D02*
X035348Y010474D01*
X035348Y010511D02*
X035348Y010401D01*
X035421Y010401D02*
X035201Y010401D01*
X035201Y010511D01*
X035238Y010548D01*
X035311Y010548D01*
X035348Y010511D01*
X035238Y010622D02*
X035201Y010659D01*
X035201Y010732D01*
X035238Y010769D01*
X035311Y010732D02*
X035311Y010695D01*
X036647Y011443D02*
X036647Y011590D01*
X036647Y011516D02*
X036867Y011516D01*
X036757Y011664D02*
X036757Y011811D01*
X036867Y011774D02*
X036647Y011774D01*
X036757Y011664D01*
X036421Y013401D02*
X036201Y013401D01*
X036201Y013511D01*
X036238Y013548D01*
X036311Y013548D01*
X036348Y013511D01*
X036348Y013401D01*
X036348Y013474D02*
X036421Y013548D01*
X036385Y013622D02*
X036421Y013659D01*
X036421Y013732D01*
X036385Y013769D01*
X036348Y013769D01*
X036311Y013732D01*
X036311Y013695D01*
X036311Y013732D02*
X036275Y013769D01*
X036238Y013769D01*
X036201Y013732D01*
X036201Y013659D01*
X036238Y013622D01*
X036311Y013843D02*
X036311Y013953D01*
X036348Y013990D01*
X036385Y013990D01*
X036421Y013953D01*
X036421Y013880D01*
X036385Y013843D01*
X036311Y013843D01*
X036238Y013916D01*
X036201Y013990D01*
X036441Y015238D02*
X036441Y015348D01*
X036478Y015385D01*
X036551Y015385D01*
X036588Y015348D01*
X036588Y015238D01*
X036661Y015238D02*
X036441Y015238D01*
X036588Y015312D02*
X036661Y015385D01*
X036625Y015459D02*
X036661Y015496D01*
X036661Y015569D01*
X036625Y015606D01*
X036588Y015606D01*
X036551Y015569D01*
X036551Y015533D01*
X036551Y015569D02*
X036515Y015606D01*
X036478Y015606D01*
X036441Y015569D01*
X036441Y015496D01*
X036478Y015459D01*
X036478Y015680D02*
X036441Y015717D01*
X036441Y015790D01*
X036478Y015827D01*
X036625Y015680D01*
X036661Y015717D01*
X036661Y015790D01*
X036625Y015827D01*
X036478Y015827D01*
X036478Y015680D02*
X036625Y015680D01*
X035421Y015695D02*
X035201Y015695D01*
X035275Y015622D01*
X035238Y015548D02*
X035201Y015511D01*
X035201Y015438D01*
X035238Y015401D01*
X035385Y015401D01*
X035421Y015438D01*
X035421Y015511D01*
X035385Y015548D01*
X035421Y015622D02*
X035421Y015769D01*
X035421Y015843D02*
X035275Y015990D01*
X035238Y015990D01*
X035201Y015953D01*
X035201Y015880D01*
X035238Y015843D01*
X035421Y015843D02*
X035421Y015990D01*
X036597Y016993D02*
X036597Y017140D01*
X036597Y017066D02*
X036817Y017066D01*
X036780Y017214D02*
X036817Y017251D01*
X036817Y017324D01*
X036780Y017361D01*
X036744Y017361D01*
X036707Y017324D01*
X036707Y017287D01*
X036707Y017324D02*
X036670Y017361D01*
X036633Y017361D01*
X036597Y017324D01*
X036597Y017251D01*
X036633Y017214D01*
X035867Y017661D02*
X035720Y017661D01*
X035794Y017661D02*
X035794Y017881D01*
X035720Y017808D01*
X035646Y017808D02*
X035610Y017771D01*
X035646Y017734D01*
X035646Y017698D01*
X035610Y017661D01*
X035536Y017661D01*
X035499Y017698D01*
X035425Y017661D02*
X035352Y017734D01*
X035389Y017734D02*
X035278Y017734D01*
X035278Y017661D02*
X035278Y017881D01*
X035389Y017881D01*
X035425Y017845D01*
X035425Y017771D01*
X035389Y017734D01*
X035499Y017845D02*
X035536Y017881D01*
X035610Y017881D01*
X035646Y017845D01*
X035646Y017808D01*
X035610Y017771D02*
X035573Y017771D01*
X036441Y020738D02*
X036441Y020848D01*
X036478Y020885D01*
X036551Y020885D01*
X036588Y020848D01*
X036588Y020738D01*
X036661Y020738D02*
X036441Y020738D01*
X036588Y020812D02*
X036661Y020885D01*
X036661Y020959D02*
X036515Y021106D01*
X036478Y021106D01*
X036441Y021069D01*
X036441Y020996D01*
X036478Y020959D01*
X036661Y020959D02*
X036661Y021106D01*
X036625Y021180D02*
X036661Y021217D01*
X036661Y021290D01*
X036625Y021327D01*
X036551Y021327D01*
X036515Y021290D01*
X036515Y021254D01*
X036551Y021180D01*
X036441Y021180D01*
X036441Y021327D01*
X035421Y021343D02*
X035421Y021490D01*
X035421Y021416D02*
X035201Y021416D01*
X035275Y021343D01*
X035421Y021269D02*
X035421Y021122D01*
X035421Y021195D02*
X035201Y021195D01*
X035275Y021122D01*
X035238Y021048D02*
X035201Y021011D01*
X035201Y020938D01*
X035238Y020901D01*
X035385Y020901D01*
X035421Y020938D01*
X035421Y021011D01*
X035385Y021048D01*
X036597Y022493D02*
X036597Y022640D01*
X036597Y022566D02*
X036817Y022566D01*
X036817Y022714D02*
X036670Y022861D01*
X036633Y022861D01*
X036597Y022824D01*
X036597Y022751D01*
X036633Y022714D01*
X036817Y022714D02*
X036817Y022861D01*
X035867Y023198D02*
X035867Y023234D01*
X035831Y023271D01*
X035720Y023271D01*
X035720Y023198D01*
X035757Y023161D01*
X035831Y023161D01*
X035867Y023198D01*
X035794Y023345D02*
X035720Y023271D01*
X035646Y023308D02*
X035646Y023345D01*
X035610Y023381D01*
X035536Y023381D01*
X035499Y023345D01*
X035425Y023345D02*
X035425Y023271D01*
X035389Y023234D01*
X035278Y023234D01*
X035278Y023161D02*
X035278Y023381D01*
X035389Y023381D01*
X035425Y023345D01*
X035352Y023234D02*
X035425Y023161D01*
X035499Y023161D02*
X035646Y023308D01*
X035646Y023161D02*
X035499Y023161D01*
X035794Y023345D02*
X035867Y023381D01*
X036441Y026238D02*
X036441Y026348D01*
X036478Y026385D01*
X036551Y026385D01*
X036588Y026348D01*
X036588Y026238D01*
X036661Y026238D02*
X036441Y026238D01*
X036588Y026312D02*
X036661Y026385D01*
X036661Y026459D02*
X036515Y026606D01*
X036478Y026606D01*
X036441Y026569D01*
X036441Y026496D01*
X036478Y026459D01*
X036661Y026459D02*
X036661Y026606D01*
X036625Y026680D02*
X036661Y026717D01*
X036661Y026790D01*
X036625Y026827D01*
X036478Y026827D01*
X036625Y026680D01*
X036478Y026680D01*
X036441Y026717D01*
X036441Y026790D01*
X036478Y026827D01*
X035421Y026880D02*
X035385Y026843D01*
X035238Y026990D01*
X035385Y026990D01*
X035421Y026953D01*
X035421Y026880D01*
X035385Y026843D02*
X035238Y026843D01*
X035201Y026880D01*
X035201Y026953D01*
X035238Y026990D01*
X035421Y026769D02*
X035421Y026622D01*
X035421Y026695D02*
X035201Y026695D01*
X035275Y026622D01*
X035238Y026548D02*
X035201Y026511D01*
X035201Y026438D01*
X035238Y026401D01*
X035385Y026401D01*
X035421Y026438D01*
X035421Y026511D01*
X035385Y026548D01*
X036597Y027993D02*
X036597Y028140D01*
X036597Y028066D02*
X036817Y028066D01*
X036817Y028214D02*
X036817Y028361D01*
X036817Y028287D02*
X036597Y028287D01*
X036670Y028214D01*
X035867Y028661D02*
X035720Y028661D01*
X035646Y028661D02*
X035499Y028661D01*
X035646Y028808D01*
X035646Y028845D01*
X035610Y028881D01*
X035536Y028881D01*
X035499Y028845D01*
X035425Y028845D02*
X035425Y028771D01*
X035389Y028734D01*
X035278Y028734D01*
X035278Y028661D02*
X035278Y028881D01*
X035389Y028881D01*
X035425Y028845D01*
X035352Y028734D02*
X035425Y028661D01*
X035720Y028808D02*
X035794Y028881D01*
X035794Y028661D01*
X038307Y026281D02*
X038307Y026061D01*
X038454Y026061D01*
X038528Y026061D02*
X038528Y026281D01*
X038675Y026281D01*
X038749Y026281D02*
X038860Y026281D01*
X038896Y026245D01*
X038896Y026098D01*
X038860Y026061D01*
X038749Y026061D01*
X038749Y026281D01*
X038602Y026171D02*
X038528Y026171D01*
X038528Y026061D02*
X038675Y026061D01*
X038970Y026061D02*
X039117Y026061D01*
X039044Y026061D02*
X039044Y026281D01*
X038970Y026208D01*
X038999Y020781D02*
X039110Y020781D01*
X039146Y020745D01*
X039146Y020598D01*
X039110Y020561D01*
X038999Y020561D01*
X038999Y020781D01*
X038925Y020781D02*
X038778Y020781D01*
X038778Y020561D01*
X038925Y020561D01*
X038852Y020671D02*
X038778Y020671D01*
X038704Y020561D02*
X038557Y020561D01*
X038557Y020781D01*
X039220Y020745D02*
X039257Y020781D01*
X039331Y020781D01*
X039367Y020745D01*
X039367Y020708D01*
X039220Y020561D01*
X039367Y020561D01*
X039081Y015281D02*
X039117Y015245D01*
X039117Y015208D01*
X039081Y015171D01*
X039117Y015134D01*
X039117Y015098D01*
X039081Y015061D01*
X039007Y015061D01*
X038970Y015098D01*
X038896Y015098D02*
X038896Y015245D01*
X038860Y015281D01*
X038749Y015281D01*
X038749Y015061D01*
X038860Y015061D01*
X038896Y015098D01*
X038970Y015245D02*
X039007Y015281D01*
X039081Y015281D01*
X039081Y015171D02*
X039044Y015171D01*
X038675Y015061D02*
X038528Y015061D01*
X038528Y015281D01*
X038675Y015281D01*
X038602Y015171D02*
X038528Y015171D01*
X038454Y015061D02*
X038307Y015061D01*
X038307Y015281D01*
X038307Y009781D02*
X038307Y009561D01*
X038454Y009561D01*
X038528Y009561D02*
X038675Y009561D01*
X038749Y009561D02*
X038860Y009561D01*
X038896Y009598D01*
X038896Y009745D01*
X038860Y009781D01*
X038749Y009781D01*
X038749Y009561D01*
X038602Y009671D02*
X038528Y009671D01*
X038528Y009781D02*
X038528Y009561D01*
X038528Y009781D02*
X038675Y009781D01*
X038970Y009671D02*
X039117Y009671D01*
X039081Y009561D02*
X039081Y009781D01*
X038970Y009671D01*
X030821Y009674D02*
X030821Y009601D01*
X030785Y009564D01*
X030711Y009564D02*
X030675Y009637D01*
X030675Y009674D01*
X030711Y009711D01*
X030785Y009711D01*
X030821Y009674D01*
X030711Y009564D02*
X030601Y009564D01*
X030601Y009711D01*
X030638Y009490D02*
X030601Y009453D01*
X030601Y009343D01*
X030821Y009343D01*
X030821Y009453D01*
X030785Y009490D01*
X030638Y009490D01*
X030601Y009269D02*
X030601Y009122D01*
X030821Y009122D01*
X030821Y009269D01*
X030711Y009195D02*
X030711Y009122D01*
X030821Y009048D02*
X030821Y008901D01*
X030601Y008901D01*
X025321Y008901D02*
X025321Y009048D01*
X025321Y009122D02*
X025321Y009269D01*
X025321Y009343D02*
X025321Y009453D01*
X025285Y009490D01*
X025138Y009490D01*
X025101Y009453D01*
X025101Y009343D01*
X025321Y009343D01*
X025211Y009195D02*
X025211Y009122D01*
X025101Y009122D02*
X025321Y009122D01*
X025101Y009122D02*
X025101Y009269D01*
X025211Y009564D02*
X025211Y009674D01*
X025248Y009711D01*
X025285Y009711D01*
X025321Y009674D01*
X025321Y009601D01*
X025285Y009564D01*
X025211Y009564D01*
X025138Y009637D01*
X025101Y009711D01*
X025101Y008901D02*
X025321Y008901D01*
X019821Y008901D02*
X019821Y009048D01*
X019821Y009122D02*
X019821Y009269D01*
X019821Y009343D02*
X019821Y009453D01*
X019785Y009490D01*
X019638Y009490D01*
X019601Y009453D01*
X019601Y009343D01*
X019821Y009343D01*
X019711Y009195D02*
X019711Y009122D01*
X019601Y009122D02*
X019821Y009122D01*
X019601Y009122D02*
X019601Y009269D01*
X019601Y009564D02*
X019601Y009711D01*
X019638Y009711D01*
X019785Y009564D01*
X019821Y009564D01*
X019821Y008901D02*
X019601Y008901D01*
X012464Y016501D02*
X012501Y016538D01*
X012501Y016685D01*
X012464Y016721D01*
X012391Y016721D01*
X012354Y016685D01*
X012354Y016648D01*
X012391Y016611D01*
X012501Y016611D01*
X012464Y016501D02*
X012391Y016501D01*
X012354Y016538D01*
X012280Y016538D02*
X012280Y016685D01*
X012243Y016721D01*
X012133Y016721D01*
X012133Y016501D01*
X012243Y016501D01*
X012280Y016538D01*
X012059Y016501D02*
X011912Y016501D01*
X011912Y016721D01*
X012059Y016721D01*
X011986Y016611D02*
X011912Y016611D01*
X011838Y016501D02*
X011691Y016501D01*
X011691Y016721D01*
X015478Y020738D02*
X015625Y020738D01*
X015661Y020775D01*
X015661Y020848D01*
X015625Y020885D01*
X015661Y020959D02*
X015661Y021106D01*
X015661Y021033D02*
X015441Y021033D01*
X015515Y020959D01*
X015478Y020885D02*
X015441Y020848D01*
X015441Y020775D01*
X015478Y020738D01*
X015478Y021180D02*
X015515Y021180D01*
X015551Y021217D01*
X015551Y021327D01*
X015478Y021327D02*
X015441Y021290D01*
X015441Y021217D01*
X015478Y021180D01*
X015625Y021180D02*
X015661Y021217D01*
X015661Y021290D01*
X015625Y021327D01*
X015478Y021327D01*
X012722Y022038D02*
X012685Y022001D01*
X012612Y022001D01*
X012575Y022038D01*
X012722Y022185D01*
X012722Y022038D01*
X012722Y022185D02*
X012685Y022221D01*
X012612Y022221D01*
X012575Y022185D01*
X012575Y022038D01*
X012501Y022001D02*
X012354Y022001D01*
X012428Y022001D02*
X012428Y022221D01*
X012354Y022148D01*
X012280Y022185D02*
X012243Y022221D01*
X012133Y022221D01*
X012133Y022001D01*
X012243Y022001D01*
X012280Y022038D01*
X012280Y022185D01*
X012059Y022221D02*
X011912Y022221D01*
X011912Y022001D01*
X012059Y022001D01*
X011986Y022111D02*
X011912Y022111D01*
X011838Y022001D02*
X011691Y022001D01*
X011691Y022221D01*
X018591Y027057D02*
X018665Y027130D01*
X018811Y027130D01*
X018775Y027204D02*
X018811Y027241D01*
X018811Y027314D01*
X018775Y027351D01*
X018775Y027425D02*
X018811Y027462D01*
X018811Y027535D01*
X018775Y027572D01*
X018738Y027572D01*
X018701Y027535D01*
X018701Y027462D01*
X018665Y027425D01*
X018628Y027425D01*
X018591Y027462D01*
X018591Y027535D01*
X018628Y027572D01*
X018591Y027646D02*
X018811Y027646D01*
X018811Y027793D01*
X018775Y027867D02*
X018811Y027904D01*
X018811Y027977D01*
X018775Y028014D01*
X018738Y028014D01*
X018701Y027977D01*
X018701Y027867D01*
X018775Y027867D01*
X018701Y027867D02*
X018628Y027941D01*
X018591Y028014D01*
X018701Y028088D02*
X018701Y028235D01*
X018665Y028309D02*
X018591Y028383D01*
X018811Y028383D01*
X018811Y028456D02*
X018811Y028309D01*
X018811Y028198D02*
X018591Y028198D01*
X018701Y028088D01*
X018628Y028530D02*
X018591Y028567D01*
X018591Y028640D01*
X018628Y028677D01*
X018775Y028530D01*
X018811Y028567D01*
X018811Y028640D01*
X018775Y028677D01*
X018628Y028677D01*
X018628Y028530D02*
X018775Y028530D01*
X018628Y027351D02*
X018591Y027314D01*
X018591Y027241D01*
X018628Y027204D01*
X018775Y027204D01*
X018701Y027130D02*
X018701Y026983D01*
X018665Y026983D02*
X018591Y027057D01*
X018665Y026983D02*
X018811Y026983D01*
X019661Y023827D02*
X019661Y023680D01*
X019661Y023754D02*
X019441Y023754D01*
X019515Y023680D01*
X019551Y023606D02*
X019588Y023569D01*
X019588Y023459D01*
X019661Y023459D02*
X019441Y023459D01*
X019441Y023569D01*
X019478Y023606D01*
X019551Y023606D01*
X019588Y023533D02*
X019661Y023606D01*
X020941Y023569D02*
X020941Y023459D01*
X021161Y023459D01*
X021088Y023459D02*
X021088Y023569D01*
X021051Y023606D01*
X020978Y023606D01*
X020941Y023569D01*
X020978Y023680D02*
X020941Y023717D01*
X020941Y023790D01*
X020978Y023827D01*
X021015Y023827D01*
X021161Y023680D01*
X021161Y023827D01*
X021161Y023606D02*
X021088Y023533D01*
X022441Y023569D02*
X022441Y023459D01*
X022661Y023459D01*
X022588Y023459D02*
X022588Y023569D01*
X022551Y023606D01*
X022478Y023606D01*
X022441Y023569D01*
X022478Y023680D02*
X022441Y023717D01*
X022441Y023790D01*
X022478Y023827D01*
X022515Y023827D01*
X022551Y023790D01*
X022588Y023827D01*
X022625Y023827D01*
X022661Y023790D01*
X022661Y023717D01*
X022625Y023680D01*
X022661Y023606D02*
X022588Y023533D01*
X022551Y023754D02*
X022551Y023790D01*
X023201Y023769D02*
X023238Y023695D01*
X023311Y023622D01*
X023311Y023732D01*
X023348Y023769D01*
X023385Y023769D01*
X023421Y023732D01*
X023421Y023659D01*
X023385Y023622D01*
X023311Y023622D01*
X023238Y023548D02*
X023201Y023511D01*
X023201Y023438D01*
X023238Y023401D01*
X023385Y023401D01*
X023421Y023438D01*
X023421Y023511D01*
X023385Y023548D01*
X024941Y023738D02*
X024941Y023848D01*
X024978Y023885D01*
X025051Y023885D01*
X025088Y023848D01*
X025088Y023738D01*
X025161Y023738D02*
X024941Y023738D01*
X025088Y023812D02*
X025161Y023885D01*
X025161Y023959D02*
X025161Y024106D01*
X025161Y024033D02*
X024941Y024033D01*
X025015Y023959D01*
X024978Y024180D02*
X024941Y024217D01*
X024941Y024290D01*
X024978Y024327D01*
X025015Y024327D01*
X025051Y024290D01*
X025088Y024327D01*
X025125Y024327D01*
X025161Y024290D01*
X025161Y024217D01*
X025125Y024180D01*
X025051Y024254D02*
X025051Y024290D01*
X025536Y025161D02*
X025499Y025198D01*
X025499Y025345D01*
X025536Y025381D01*
X025610Y025381D01*
X025646Y025345D01*
X025720Y025345D02*
X025757Y025381D01*
X025831Y025381D01*
X025867Y025345D01*
X025867Y025308D01*
X025720Y025161D01*
X025867Y025161D01*
X025646Y025198D02*
X025610Y025161D01*
X025536Y025161D01*
X028201Y023490D02*
X028238Y023490D01*
X028385Y023343D01*
X028421Y023343D01*
X028421Y023269D02*
X028421Y023122D01*
X028421Y023195D02*
X028201Y023195D01*
X028275Y023122D01*
X028238Y023048D02*
X028311Y023048D01*
X028348Y023011D01*
X028348Y022901D01*
X028421Y022901D02*
X028201Y022901D01*
X028201Y023011D01*
X028238Y023048D01*
X028348Y022974D02*
X028421Y023048D01*
X028201Y023343D02*
X028201Y023490D01*
X029201Y022490D02*
X029238Y022416D01*
X029311Y022343D01*
X029311Y022453D01*
X029348Y022490D01*
X029385Y022490D01*
X029421Y022453D01*
X029421Y022380D01*
X029385Y022343D01*
X029311Y022343D01*
X029421Y022269D02*
X029421Y022122D01*
X029421Y022195D02*
X029201Y022195D01*
X029275Y022122D01*
X029311Y022048D02*
X029348Y022011D01*
X029348Y021901D01*
X029421Y021901D02*
X029201Y021901D01*
X029201Y022011D01*
X029238Y022048D01*
X029311Y022048D01*
X029348Y021974D02*
X029421Y022048D01*
X029309Y025901D02*
X029162Y025901D01*
X029236Y025901D02*
X029236Y026121D01*
X029162Y026048D01*
X029088Y026085D02*
X029051Y026121D01*
X028978Y026121D01*
X028941Y026085D01*
X028941Y025938D01*
X028978Y025901D01*
X029051Y025901D01*
X029088Y025938D01*
D15*
X028486Y026478D02*
X028486Y026623D01*
X028438Y026671D01*
X028390Y026671D01*
X028341Y026623D01*
X028341Y026478D01*
X028341Y026623D02*
X028293Y026671D01*
X028245Y026671D01*
X028196Y026623D01*
X028196Y026478D01*
X028486Y026478D01*
X028486Y026772D02*
X028293Y026772D01*
X028196Y026869D01*
X028293Y026966D01*
X028486Y026966D01*
X028341Y026966D02*
X028341Y026772D01*
X028196Y027067D02*
X028196Y027260D01*
X028196Y027164D02*
X028486Y027164D01*
X028486Y027361D02*
X028293Y027555D01*
X028245Y027555D01*
X028196Y027507D01*
X028196Y027410D01*
X028245Y027361D01*
X028486Y027361D02*
X028486Y027555D01*
X028518Y030346D02*
X028641Y030346D01*
X028703Y030408D01*
X028703Y030470D01*
X028641Y030531D01*
X028456Y030531D01*
X028456Y030408D01*
X028518Y030346D01*
X028335Y030408D02*
X028273Y030346D01*
X028150Y030346D01*
X028088Y030408D01*
X028088Y030470D01*
X028150Y030531D01*
X028273Y030531D01*
X028335Y030470D01*
X028335Y030408D01*
X028273Y030531D02*
X028335Y030593D01*
X028335Y030655D01*
X028273Y030716D01*
X028150Y030716D01*
X028088Y030655D01*
X028088Y030593D01*
X028150Y030531D01*
X027966Y030470D02*
X027966Y030408D01*
X027905Y030346D01*
X027781Y030346D01*
X027720Y030408D01*
X027598Y030408D02*
X027536Y030346D01*
X027413Y030346D01*
X027351Y030408D01*
X027351Y030470D01*
X027413Y030531D01*
X027536Y030531D01*
X027598Y030470D01*
X027598Y030408D01*
X027536Y030531D02*
X027598Y030593D01*
X027598Y030655D01*
X027536Y030716D01*
X027413Y030716D01*
X027351Y030655D01*
X027351Y030593D01*
X027413Y030531D01*
X027230Y030470D02*
X027168Y030531D01*
X026983Y030531D01*
X026983Y030408D01*
X027045Y030346D01*
X027168Y030346D01*
X027230Y030408D01*
X027230Y030470D01*
X027106Y030655D02*
X026983Y030531D01*
X027106Y030655D02*
X027230Y030716D01*
X026862Y030716D02*
X026615Y030716D01*
X026615Y030346D01*
X026862Y030346D01*
X026738Y030531D02*
X026615Y030531D01*
X026493Y030531D02*
X026432Y030470D01*
X026246Y030470D01*
X026246Y030346D02*
X026246Y030716D01*
X026432Y030716D01*
X026493Y030655D01*
X026493Y030531D01*
X027720Y030655D02*
X027781Y030716D01*
X027905Y030716D01*
X027966Y030655D01*
X027966Y030593D01*
X027905Y030531D01*
X027966Y030470D01*
X027905Y030531D02*
X027843Y030531D01*
X028456Y030531D02*
X028580Y030655D01*
X028703Y030716D01*
X024986Y027555D02*
X024986Y027361D01*
X024986Y027458D02*
X024696Y027458D01*
X024793Y027361D01*
X024696Y027260D02*
X024696Y027067D01*
X024696Y027164D02*
X024986Y027164D01*
X024986Y026966D02*
X024793Y026966D01*
X024696Y026869D01*
X024793Y026772D01*
X024986Y026772D01*
X024938Y026671D02*
X024986Y026623D01*
X024986Y026478D01*
X024696Y026478D01*
X024696Y026623D01*
X024745Y026671D01*
X024793Y026671D01*
X024841Y026623D01*
X024841Y026478D01*
X024841Y026623D02*
X024890Y026671D01*
X024938Y026671D01*
X024841Y026772D02*
X024841Y026966D01*
X021118Y033156D02*
X021166Y033204D01*
X021166Y033301D01*
X021118Y033350D01*
X021070Y033350D01*
X021021Y033301D01*
X021021Y033204D01*
X020973Y033156D01*
X020925Y033156D01*
X020876Y033204D01*
X020876Y033301D01*
X020925Y033350D01*
X020925Y033451D02*
X021118Y033451D01*
X021166Y033499D01*
X021166Y033596D01*
X021118Y033644D01*
X021070Y033745D02*
X020876Y033939D01*
X020876Y034040D02*
X020876Y034137D01*
X020876Y034088D02*
X021166Y034088D01*
X021166Y034040D02*
X021166Y034137D01*
X021166Y033939D02*
X021021Y033794D01*
X020876Y033745D02*
X021166Y033745D01*
X020925Y033644D02*
X020876Y033596D01*
X020876Y033499D01*
X020925Y033451D01*
X019166Y033451D02*
X019166Y033596D01*
X019118Y033644D01*
X018925Y033644D01*
X018876Y033596D01*
X018876Y033451D01*
X019166Y033451D01*
X019118Y033350D02*
X019166Y033301D01*
X019166Y033204D01*
X019118Y033156D01*
X019021Y033204D02*
X019021Y033301D01*
X019070Y033350D01*
X019118Y033350D01*
X019021Y033204D02*
X018973Y033156D01*
X018925Y033156D01*
X018876Y033204D01*
X018876Y033301D01*
X018925Y033350D01*
X018876Y033745D02*
X018876Y033842D01*
X018876Y033794D02*
X019166Y033794D01*
X019166Y033842D02*
X019166Y033745D01*
X017166Y033745D02*
X017166Y033891D01*
X017118Y033939D01*
X017070Y033939D01*
X017021Y033891D01*
X017021Y033745D01*
X017070Y033644D02*
X017118Y033644D01*
X017166Y033596D01*
X017166Y033499D01*
X017118Y033451D01*
X017118Y033350D02*
X017166Y033301D01*
X017166Y033204D01*
X017118Y033156D01*
X016925Y033156D01*
X016876Y033204D01*
X016876Y033301D01*
X016925Y033350D01*
X016925Y033451D02*
X016973Y033451D01*
X017021Y033499D01*
X017021Y033596D01*
X017070Y033644D01*
X017166Y033745D02*
X016876Y033745D01*
X016876Y033891D01*
X016925Y033939D01*
X016973Y033939D01*
X017021Y033891D01*
X016876Y034040D02*
X016876Y034137D01*
X016876Y034088D02*
X017166Y034088D01*
X017166Y034040D02*
X017166Y034137D01*
X016925Y033644D02*
X016876Y033596D01*
X016876Y033499D01*
X016925Y033451D01*
X012841Y030241D02*
X012841Y030144D01*
X012793Y030095D01*
X012745Y030095D01*
X012696Y030144D01*
X012696Y030241D01*
X012745Y030289D01*
X012793Y030289D01*
X012841Y030241D01*
X012696Y030241D02*
X012648Y030289D01*
X012600Y030289D01*
X012551Y030241D01*
X012551Y030144D01*
X012600Y030095D01*
X012648Y030095D01*
X012696Y030144D01*
X012600Y029994D02*
X012793Y029801D01*
X012841Y029801D01*
X012841Y029700D02*
X012745Y029603D01*
X012745Y029651D02*
X012745Y029506D01*
X012841Y029506D02*
X012551Y029506D01*
X012551Y029651D01*
X012600Y029700D01*
X012696Y029700D01*
X012745Y029651D01*
X012551Y029801D02*
X012551Y029994D01*
X012600Y029994D01*
X010811Y029922D02*
X010521Y029922D01*
X010521Y030067D01*
X010570Y030116D01*
X010666Y030116D01*
X010715Y030067D01*
X010715Y029922D01*
X010715Y030019D02*
X010811Y030116D01*
X010811Y030217D02*
X010763Y030217D01*
X010570Y030410D01*
X010521Y030410D01*
X010521Y030217D01*
X010521Y030511D02*
X010521Y030705D01*
X010570Y030705D01*
X010763Y030511D01*
X010811Y030511D01*
X010547Y031586D02*
X010595Y031634D01*
X010595Y031828D01*
X010547Y031876D01*
X010450Y031876D01*
X010402Y031828D01*
X010402Y031780D01*
X010450Y031731D01*
X010595Y031731D01*
X010547Y031586D02*
X010450Y031586D01*
X010402Y031634D01*
X010301Y031828D02*
X010107Y031634D01*
X010107Y031586D01*
X010006Y031586D02*
X009909Y031683D01*
X009958Y031683D02*
X009812Y031683D01*
X009812Y031586D02*
X009812Y031876D01*
X009958Y031876D01*
X010006Y031828D01*
X010006Y031731D01*
X009958Y031683D01*
X010107Y031876D02*
X010301Y031876D01*
X010301Y031828D01*
X009658Y032918D02*
X009706Y032967D01*
X009706Y033063D01*
X009658Y033112D01*
X009706Y033213D02*
X009706Y033406D01*
X009706Y033508D02*
X009706Y033701D01*
X009706Y033802D02*
X009706Y033996D01*
X009706Y034097D02*
X009706Y034290D01*
X009706Y034194D02*
X009416Y034194D01*
X009513Y034097D01*
X009465Y034391D02*
X009416Y034440D01*
X009416Y034537D01*
X009465Y034585D01*
X009513Y034585D01*
X009706Y034391D01*
X009706Y034585D01*
X009706Y033802D02*
X009416Y033802D01*
X009416Y033508D02*
X009706Y033508D01*
X009561Y033310D02*
X009561Y033213D01*
X009465Y033112D02*
X009416Y033063D01*
X009416Y032967D01*
X009465Y032918D01*
X009658Y032918D01*
X009706Y033213D02*
X009416Y033213D01*
X009416Y033406D01*
X009706Y030585D02*
X009706Y030391D01*
X009706Y030488D02*
X009416Y030488D01*
X009513Y030391D01*
X009706Y030290D02*
X009706Y030097D01*
X009706Y030194D02*
X009416Y030194D01*
X009513Y030097D01*
X009706Y029996D02*
X009706Y029802D01*
X009416Y029802D01*
X009416Y029508D02*
X009706Y029508D01*
X009706Y029701D01*
X009706Y029406D02*
X009706Y029213D01*
X009416Y029213D01*
X009416Y029406D01*
X009561Y029310D02*
X009561Y029213D01*
X009465Y029112D02*
X009416Y029063D01*
X009416Y028967D01*
X009465Y028918D01*
X009658Y028918D01*
X009706Y028967D01*
X009706Y029063D01*
X009658Y029112D01*
X009812Y026376D02*
X009958Y026376D01*
X010006Y026328D01*
X010006Y026231D01*
X009958Y026183D01*
X009812Y026183D01*
X009812Y026086D02*
X009812Y026376D01*
X009909Y026183D02*
X010006Y026086D01*
X010107Y026086D02*
X010107Y026134D01*
X010301Y026328D01*
X010301Y026376D01*
X010107Y026376D01*
X010402Y026231D02*
X010595Y026231D01*
X010547Y026086D02*
X010547Y026376D01*
X010402Y026231D01*
X010570Y025205D02*
X010521Y025157D01*
X010521Y025060D01*
X010570Y025011D01*
X010570Y024910D02*
X010763Y024717D01*
X010811Y024717D01*
X010811Y024616D02*
X010715Y024519D01*
X010715Y024567D02*
X010715Y024422D01*
X010811Y024422D02*
X010521Y024422D01*
X010521Y024567D01*
X010570Y024616D01*
X010666Y024616D01*
X010715Y024567D01*
X010521Y024717D02*
X010521Y024910D01*
X010570Y024910D01*
X010811Y025011D02*
X010618Y025205D01*
X010570Y025205D01*
X010811Y025205D02*
X010811Y025011D01*
X009706Y025037D02*
X009706Y024940D01*
X009658Y024891D01*
X009465Y025085D01*
X009658Y025085D01*
X009706Y025037D01*
X009658Y024891D02*
X009465Y024891D01*
X009416Y024940D01*
X009416Y025037D01*
X009465Y025085D01*
X009706Y024790D02*
X009706Y024597D01*
X009706Y024694D02*
X009416Y024694D01*
X009513Y024597D01*
X009706Y024496D02*
X009706Y024302D01*
X009416Y024302D01*
X009416Y024008D02*
X009706Y024008D01*
X009706Y024201D01*
X009706Y023906D02*
X009706Y023713D01*
X009416Y023713D01*
X009416Y023906D01*
X009561Y023810D02*
X009561Y023713D01*
X009465Y023612D02*
X009416Y023563D01*
X009416Y023467D01*
X009465Y023418D01*
X009658Y023418D01*
X009706Y023467D01*
X009706Y023563D01*
X009658Y023612D01*
X009812Y020876D02*
X009958Y020876D01*
X010006Y020828D01*
X010006Y020731D01*
X009958Y020683D01*
X009812Y020683D01*
X009812Y020586D02*
X009812Y020876D01*
X009909Y020683D02*
X010006Y020586D01*
X010107Y020634D02*
X010155Y020586D01*
X010252Y020586D01*
X010301Y020634D01*
X010301Y020683D01*
X010252Y020731D01*
X010107Y020731D01*
X010107Y020634D01*
X010107Y020731D02*
X010204Y020828D01*
X010301Y020876D01*
X010402Y020828D02*
X010450Y020876D01*
X010547Y020876D01*
X010595Y020828D01*
X010595Y020634D01*
X010547Y020586D01*
X010450Y020586D01*
X010402Y020634D01*
X010450Y020731D02*
X010595Y020731D01*
X010450Y020731D02*
X010402Y020780D01*
X010402Y020828D01*
X010521Y019705D02*
X010570Y019705D01*
X010763Y019511D01*
X010811Y019511D01*
X010763Y019410D02*
X010715Y019410D01*
X010666Y019362D01*
X010666Y019217D01*
X010763Y019217D01*
X010811Y019265D01*
X010811Y019362D01*
X010763Y019410D01*
X010570Y019314D02*
X010666Y019217D01*
X010666Y019116D02*
X010715Y019067D01*
X010715Y018922D01*
X010811Y018922D02*
X010521Y018922D01*
X010521Y019067D01*
X010570Y019116D01*
X010666Y019116D01*
X010715Y019019D02*
X010811Y019116D01*
X010570Y019314D02*
X010521Y019410D01*
X010521Y019511D02*
X010521Y019705D01*
X009706Y019537D02*
X009706Y019440D01*
X009658Y019391D01*
X009561Y019440D02*
X009561Y019585D01*
X009465Y019585D02*
X009416Y019537D01*
X009416Y019440D01*
X009465Y019391D01*
X009513Y019391D01*
X009561Y019440D01*
X009465Y019585D02*
X009658Y019585D01*
X009706Y019537D01*
X009706Y019290D02*
X009706Y019097D01*
X009416Y019097D01*
X009416Y018802D02*
X009706Y018802D01*
X009706Y018996D01*
X009706Y018701D02*
X009706Y018508D01*
X009416Y018508D01*
X009416Y018701D01*
X009561Y018604D02*
X009561Y018508D01*
X009465Y018406D02*
X009416Y018358D01*
X009416Y018261D01*
X009465Y018213D01*
X009658Y018213D01*
X009706Y018261D01*
X009706Y018358D01*
X009658Y018406D01*
X012551Y018506D02*
X012551Y018651D01*
X012600Y018700D01*
X012696Y018700D01*
X012745Y018651D01*
X012745Y018506D01*
X012841Y018506D02*
X012551Y018506D01*
X012745Y018603D02*
X012841Y018700D01*
X012793Y018801D02*
X012841Y018849D01*
X012841Y018946D01*
X012793Y018994D01*
X012745Y018994D01*
X012696Y018946D01*
X012696Y018801D01*
X012793Y018801D01*
X012696Y018801D02*
X012600Y018897D01*
X012551Y018994D01*
X012600Y019095D02*
X012648Y019095D01*
X012696Y019144D01*
X012696Y019241D01*
X012745Y019289D01*
X012793Y019289D01*
X012841Y019241D01*
X012841Y019144D01*
X012793Y019095D01*
X012745Y019095D01*
X012696Y019144D01*
X012696Y019241D02*
X012648Y019289D01*
X012600Y019289D01*
X012551Y019241D01*
X012551Y019144D01*
X012600Y019095D01*
X010547Y015376D02*
X010402Y015231D01*
X010595Y015231D01*
X010547Y015086D02*
X010547Y015376D01*
X010301Y015376D02*
X010204Y015328D01*
X010107Y015231D01*
X010252Y015231D01*
X010301Y015183D01*
X010301Y015134D01*
X010252Y015086D01*
X010155Y015086D01*
X010107Y015134D01*
X010107Y015231D01*
X010006Y015231D02*
X009958Y015183D01*
X009812Y015183D01*
X009812Y015086D02*
X009812Y015376D01*
X009958Y015376D01*
X010006Y015328D01*
X010006Y015231D01*
X009909Y015183D02*
X010006Y015086D01*
X010570Y014205D02*
X010521Y014157D01*
X010521Y014060D01*
X010570Y014011D01*
X010521Y013910D02*
X010570Y013814D01*
X010666Y013717D01*
X010666Y013862D01*
X010715Y013910D01*
X010763Y013910D01*
X010811Y013862D01*
X010811Y013765D01*
X010763Y013717D01*
X010666Y013717D01*
X010666Y013616D02*
X010715Y013567D01*
X010715Y013422D01*
X010811Y013422D02*
X010521Y013422D01*
X010521Y013567D01*
X010570Y013616D01*
X010666Y013616D01*
X010715Y013519D02*
X010811Y013616D01*
X010811Y014011D02*
X010618Y014205D01*
X010570Y014205D01*
X010811Y014205D02*
X010811Y014011D01*
X009706Y014037D02*
X009706Y013940D01*
X009658Y013891D01*
X009610Y013891D01*
X009561Y013940D01*
X009561Y014037D01*
X009610Y014085D01*
X009658Y014085D01*
X009706Y014037D01*
X009561Y014037D02*
X009513Y014085D01*
X009465Y014085D01*
X009416Y014037D01*
X009416Y013940D01*
X009465Y013891D01*
X009513Y013891D01*
X009561Y013940D01*
X009706Y013790D02*
X009706Y013597D01*
X009416Y013597D01*
X009416Y013302D02*
X009706Y013302D01*
X009706Y013496D01*
X009706Y013201D02*
X009706Y013008D01*
X009416Y013008D01*
X009416Y013201D01*
X009561Y013104D02*
X009561Y013008D01*
X009465Y012906D02*
X009416Y012858D01*
X009416Y012761D01*
X009465Y012713D01*
X009658Y012713D01*
X009706Y012761D01*
X009706Y012858D01*
X009658Y012906D01*
X012551Y013006D02*
X012551Y013151D01*
X012600Y013200D01*
X012696Y013200D01*
X012745Y013151D01*
X012745Y013006D01*
X012841Y013006D02*
X012551Y013006D01*
X012745Y013103D02*
X012841Y013200D01*
X012793Y013301D02*
X012841Y013349D01*
X012841Y013446D01*
X012793Y013494D01*
X012745Y013494D01*
X012696Y013446D01*
X012696Y013301D01*
X012793Y013301D01*
X012696Y013301D02*
X012600Y013397D01*
X012551Y013494D01*
X012600Y013595D02*
X012551Y013644D01*
X012551Y013741D01*
X012600Y013789D01*
X012648Y013789D01*
X012696Y013741D01*
X012745Y013789D01*
X012793Y013789D01*
X012841Y013741D01*
X012841Y013644D01*
X012793Y013595D01*
X012696Y013692D02*
X012696Y013741D01*
X016962Y009801D02*
X017108Y009801D01*
X017156Y009753D01*
X017156Y009656D01*
X017108Y009608D01*
X016962Y009608D01*
X016962Y009511D02*
X016962Y009801D01*
X017059Y009608D02*
X017156Y009511D01*
X017257Y009559D02*
X017305Y009511D01*
X017402Y009511D01*
X017451Y009559D01*
X017451Y009656D01*
X017402Y009705D01*
X017354Y009705D01*
X017257Y009656D01*
X017257Y009801D01*
X017451Y009801D01*
X017552Y009753D02*
X017552Y009705D01*
X017600Y009656D01*
X017697Y009656D01*
X017745Y009608D01*
X017745Y009559D01*
X017697Y009511D01*
X017600Y009511D01*
X017552Y009559D01*
X017552Y009608D01*
X017600Y009656D01*
X017697Y009656D02*
X017745Y009705D01*
X017745Y009753D01*
X017697Y009801D01*
X017600Y009801D01*
X017552Y009753D01*
X017329Y007771D02*
X017136Y007771D01*
X017035Y007771D02*
X016841Y007771D01*
X016841Y007626D01*
X016938Y007675D01*
X016986Y007675D01*
X017035Y007626D01*
X017035Y007529D01*
X016986Y007481D01*
X016889Y007481D01*
X016841Y007529D01*
X016740Y007481D02*
X016643Y007578D01*
X016692Y007578D02*
X016546Y007578D01*
X016546Y007481D02*
X016546Y007771D01*
X016692Y007771D01*
X016740Y007723D01*
X016740Y007626D01*
X016692Y007578D01*
X017136Y007529D02*
X017136Y007481D01*
X017136Y007529D02*
X017329Y007723D01*
X017329Y007771D01*
X017256Y006666D02*
X017256Y006376D01*
X017449Y006376D01*
X017550Y006376D02*
X017744Y006376D01*
X017845Y006376D02*
X017845Y006424D01*
X018038Y006618D01*
X018038Y006666D01*
X017845Y006666D01*
X017550Y006666D02*
X017550Y006376D01*
X017155Y006376D02*
X016961Y006376D01*
X016961Y006666D01*
X017155Y006666D01*
X017058Y006521D02*
X016961Y006521D01*
X016860Y006424D02*
X016812Y006376D01*
X016715Y006376D01*
X016666Y006424D01*
X016666Y006618D01*
X016715Y006666D01*
X016812Y006666D01*
X016860Y006618D01*
X015736Y006772D02*
X015446Y006772D01*
X015446Y006917D01*
X015495Y006966D01*
X015591Y006966D01*
X015640Y006917D01*
X015640Y006772D01*
X015640Y006869D02*
X015736Y006966D01*
X015688Y007067D02*
X015736Y007115D01*
X015736Y007212D01*
X015688Y007260D01*
X015591Y007260D01*
X015543Y007212D01*
X015543Y007164D01*
X015591Y007067D01*
X015446Y007067D01*
X015446Y007260D01*
X015495Y007361D02*
X015543Y007361D01*
X015591Y007410D01*
X015591Y007555D01*
X015495Y007555D02*
X015446Y007507D01*
X015446Y007410D01*
X015495Y007361D01*
X015688Y007361D02*
X015736Y007410D01*
X015736Y007507D01*
X015688Y007555D01*
X015495Y007555D01*
X020946Y007507D02*
X021091Y007361D01*
X021091Y007555D01*
X021236Y007507D02*
X020946Y007507D01*
X020946Y007260D02*
X020946Y007067D01*
X021091Y007067D01*
X021043Y007164D01*
X021043Y007212D01*
X021091Y007260D01*
X021188Y007260D01*
X021236Y007212D01*
X021236Y007115D01*
X021188Y007067D01*
X021236Y006966D02*
X021140Y006869D01*
X021140Y006917D02*
X021140Y006772D01*
X021236Y006772D02*
X020946Y006772D01*
X020946Y006917D01*
X020995Y006966D01*
X021091Y006966D01*
X021140Y006917D01*
X022046Y007481D02*
X022046Y007771D01*
X022192Y007771D01*
X022240Y007723D01*
X022240Y007626D01*
X022192Y007578D01*
X022046Y007578D01*
X022143Y007578D02*
X022240Y007481D01*
X022341Y007529D02*
X022389Y007481D01*
X022486Y007481D01*
X022535Y007529D01*
X022535Y007626D01*
X022486Y007675D01*
X022438Y007675D01*
X022341Y007626D01*
X022341Y007771D01*
X022535Y007771D01*
X022636Y007723D02*
X022684Y007771D01*
X022781Y007771D01*
X022829Y007723D01*
X022829Y007675D01*
X022636Y007481D01*
X022829Y007481D01*
X022756Y006666D02*
X022756Y006376D01*
X022949Y006376D01*
X023050Y006376D02*
X023244Y006376D01*
X023345Y006424D02*
X023393Y006376D01*
X023490Y006376D01*
X023538Y006424D01*
X023538Y006473D01*
X023490Y006521D01*
X023345Y006521D01*
X023345Y006424D01*
X023345Y006521D02*
X023442Y006618D01*
X023538Y006666D01*
X023050Y006666D02*
X023050Y006376D01*
X022655Y006376D02*
X022461Y006376D01*
X022461Y006666D01*
X022655Y006666D01*
X022558Y006521D02*
X022461Y006521D01*
X022360Y006424D02*
X022312Y006376D01*
X022215Y006376D01*
X022166Y006424D01*
X022166Y006618D01*
X022215Y006666D01*
X022312Y006666D01*
X022360Y006618D01*
X022462Y009511D02*
X022462Y009801D01*
X022608Y009801D01*
X022656Y009753D01*
X022656Y009656D01*
X022608Y009608D01*
X022462Y009608D01*
X022559Y009608D02*
X022656Y009511D01*
X022757Y009559D02*
X022805Y009511D01*
X022902Y009511D01*
X022951Y009559D01*
X022951Y009656D01*
X022902Y009705D01*
X022854Y009705D01*
X022757Y009656D01*
X022757Y009801D01*
X022951Y009801D01*
X023052Y009753D02*
X023100Y009801D01*
X023197Y009801D01*
X023245Y009753D01*
X023245Y009705D01*
X023197Y009656D01*
X023245Y009608D01*
X023245Y009559D01*
X023197Y009511D01*
X023100Y009511D01*
X023052Y009559D01*
X023149Y009656D02*
X023197Y009656D01*
X026446Y007507D02*
X026446Y007410D01*
X026495Y007361D01*
X026543Y007361D01*
X026591Y007410D01*
X026591Y007555D01*
X026495Y007555D02*
X026446Y007507D01*
X026495Y007555D02*
X026688Y007555D01*
X026736Y007507D01*
X026736Y007410D01*
X026688Y007361D01*
X026591Y007260D02*
X026591Y007067D01*
X026446Y007212D01*
X026736Y007212D01*
X026736Y006966D02*
X026640Y006869D01*
X026640Y006917D02*
X026640Y006772D01*
X026736Y006772D02*
X026446Y006772D01*
X026446Y006917D01*
X026495Y006966D01*
X026591Y006966D01*
X026640Y006917D01*
X027546Y007481D02*
X027546Y007771D01*
X027692Y007771D01*
X027740Y007723D01*
X027740Y007626D01*
X027692Y007578D01*
X027546Y007578D01*
X027643Y007578D02*
X027740Y007481D01*
X027841Y007626D02*
X027986Y007771D01*
X027986Y007481D01*
X028136Y007481D02*
X028136Y007529D01*
X028329Y007723D01*
X028329Y007771D01*
X028136Y007771D01*
X028035Y007626D02*
X027841Y007626D01*
X027812Y006666D02*
X027715Y006666D01*
X027666Y006618D01*
X027666Y006424D01*
X027715Y006376D01*
X027812Y006376D01*
X027860Y006424D01*
X027961Y006376D02*
X028155Y006376D01*
X028256Y006376D02*
X028449Y006376D01*
X028550Y006376D02*
X028744Y006376D01*
X028845Y006424D02*
X028893Y006376D01*
X028990Y006376D01*
X029038Y006424D01*
X029038Y006521D01*
X028990Y006570D01*
X028942Y006570D01*
X028845Y006521D01*
X028845Y006666D01*
X029038Y006666D01*
X028550Y006666D02*
X028550Y006376D01*
X028256Y006376D02*
X028256Y006666D01*
X028155Y006666D02*
X027961Y006666D01*
X027961Y006376D01*
X027961Y006521D02*
X028058Y006521D01*
X027860Y006618D02*
X027812Y006666D01*
X027962Y009511D02*
X027962Y009801D01*
X028108Y009801D01*
X028156Y009753D01*
X028156Y009656D01*
X028108Y009608D01*
X027962Y009608D01*
X028059Y009608D02*
X028156Y009511D01*
X028257Y009656D02*
X028451Y009656D01*
X028552Y009608D02*
X028600Y009656D01*
X028697Y009656D01*
X028745Y009608D01*
X028745Y009559D01*
X028697Y009511D01*
X028600Y009511D01*
X028552Y009559D01*
X028552Y009608D01*
X028600Y009656D02*
X028552Y009705D01*
X028552Y009753D01*
X028600Y009801D01*
X028697Y009801D01*
X028745Y009753D01*
X028745Y009705D01*
X028697Y009656D01*
X028402Y009511D02*
X028402Y009801D01*
X028257Y009656D01*
X031946Y007507D02*
X032091Y007361D01*
X032091Y007555D01*
X032236Y007507D02*
X031946Y007507D01*
X032091Y007260D02*
X032091Y007067D01*
X031946Y007212D01*
X032236Y007212D01*
X032236Y006966D02*
X032140Y006869D01*
X032140Y006917D02*
X032140Y006772D01*
X032236Y006772D02*
X031946Y006772D01*
X031946Y006917D01*
X031995Y006966D01*
X032091Y006966D01*
X032140Y006917D01*
X033046Y007481D02*
X033046Y007771D01*
X033192Y007771D01*
X033240Y007723D01*
X033240Y007626D01*
X033192Y007578D01*
X033046Y007578D01*
X033143Y007578D02*
X033240Y007481D01*
X033341Y007626D02*
X033535Y007626D01*
X033636Y007723D02*
X033684Y007771D01*
X033781Y007771D01*
X033829Y007723D01*
X033829Y007675D01*
X033636Y007481D01*
X033829Y007481D01*
X033486Y007481D02*
X033486Y007771D01*
X033341Y007626D01*
X033462Y009511D02*
X033462Y009801D01*
X033608Y009801D01*
X033656Y009753D01*
X033656Y009656D01*
X033608Y009608D01*
X033462Y009608D01*
X033559Y009608D02*
X033656Y009511D01*
X033757Y009656D02*
X033951Y009656D01*
X034052Y009559D02*
X034100Y009511D01*
X034197Y009511D01*
X034245Y009559D01*
X034245Y009608D01*
X034197Y009656D01*
X034149Y009656D01*
X034197Y009656D02*
X034245Y009705D01*
X034245Y009753D01*
X034197Y009801D01*
X034100Y009801D01*
X034052Y009753D01*
X033902Y009801D02*
X033757Y009656D01*
X033902Y009511D02*
X033902Y009801D01*
X038271Y012422D02*
X038271Y012567D01*
X038320Y012616D01*
X038416Y012616D01*
X038465Y012567D01*
X038465Y012422D01*
X038561Y012422D02*
X038271Y012422D01*
X038465Y012519D02*
X038561Y012616D01*
X038513Y012717D02*
X038561Y012765D01*
X038561Y012862D01*
X038513Y012910D01*
X038465Y012910D01*
X038416Y012862D01*
X038416Y012814D01*
X038416Y012862D02*
X038368Y012910D01*
X038320Y012910D01*
X038271Y012862D01*
X038271Y012765D01*
X038320Y012717D01*
X038320Y013011D02*
X038368Y013011D01*
X038416Y013060D01*
X038416Y013157D01*
X038465Y013205D01*
X038513Y013205D01*
X038561Y013157D01*
X038561Y013060D01*
X038513Y013011D01*
X038465Y013011D01*
X038416Y013060D01*
X038416Y013157D02*
X038368Y013205D01*
X038320Y013205D01*
X038271Y013157D01*
X038271Y013060D01*
X038320Y013011D01*
X040051Y012789D02*
X040051Y012595D01*
X040100Y012494D02*
X040148Y012494D01*
X040196Y012446D01*
X040245Y012494D01*
X040293Y012494D01*
X040341Y012446D01*
X040341Y012349D01*
X040293Y012301D01*
X040341Y012200D02*
X040245Y012103D01*
X040245Y012151D02*
X040245Y012006D01*
X040341Y012006D02*
X040051Y012006D01*
X040051Y012151D01*
X040100Y012200D01*
X040196Y012200D01*
X040245Y012151D01*
X040100Y012301D02*
X040051Y012349D01*
X040051Y012446D01*
X040100Y012494D01*
X040196Y012446D02*
X040196Y012397D01*
X040293Y012595D02*
X040341Y012595D01*
X040293Y012595D02*
X040100Y012789D01*
X040051Y012789D01*
X040196Y011196D02*
X040342Y011196D01*
X040390Y011148D01*
X040390Y011051D01*
X040342Y011003D01*
X040196Y011003D01*
X040196Y010906D02*
X040196Y011196D01*
X040293Y011003D02*
X040390Y010906D01*
X040491Y010954D02*
X040539Y010906D01*
X040636Y010906D01*
X040685Y010954D01*
X040685Y011003D01*
X040636Y011051D01*
X040588Y011051D01*
X040636Y011051D02*
X040685Y011100D01*
X040685Y011148D01*
X040636Y011196D01*
X040539Y011196D01*
X040491Y011148D01*
X040786Y011148D02*
X040786Y011100D01*
X040834Y011051D01*
X040979Y011051D01*
X040979Y010954D02*
X040979Y011148D01*
X040931Y011196D01*
X040834Y011196D01*
X040786Y011148D01*
X040786Y010954D02*
X040834Y010906D01*
X040931Y010906D01*
X040979Y010954D01*
X040931Y016406D02*
X040931Y016696D01*
X040786Y016551D01*
X040979Y016551D01*
X040685Y016503D02*
X040685Y016454D01*
X040636Y016406D01*
X040539Y016406D01*
X040491Y016454D01*
X040390Y016406D02*
X040293Y016503D01*
X040342Y016503D02*
X040196Y016503D01*
X040196Y016406D02*
X040196Y016696D01*
X040342Y016696D01*
X040390Y016648D01*
X040390Y016551D01*
X040342Y016503D01*
X040491Y016648D02*
X040539Y016696D01*
X040636Y016696D01*
X040685Y016648D01*
X040685Y016600D01*
X040636Y016551D01*
X040685Y016503D01*
X040636Y016551D02*
X040588Y016551D01*
X040341Y017506D02*
X040051Y017506D01*
X040051Y017651D01*
X040100Y017700D01*
X040196Y017700D01*
X040245Y017651D01*
X040245Y017506D01*
X040245Y017603D02*
X040341Y017700D01*
X040293Y017801D02*
X040341Y017849D01*
X040341Y017946D01*
X040293Y017994D01*
X040245Y017994D01*
X040196Y017946D01*
X040196Y017897D01*
X040196Y017946D02*
X040148Y017994D01*
X040100Y017994D01*
X040051Y017946D01*
X040051Y017849D01*
X040100Y017801D01*
X040100Y018095D02*
X040051Y018144D01*
X040051Y018241D01*
X040100Y018289D01*
X040148Y018289D01*
X040341Y018095D01*
X040341Y018289D01*
X038561Y018265D02*
X038513Y018217D01*
X038561Y018265D02*
X038561Y018362D01*
X038513Y018410D01*
X038465Y018410D01*
X038416Y018362D01*
X038416Y018314D01*
X038416Y018362D02*
X038368Y018410D01*
X038320Y018410D01*
X038271Y018362D01*
X038271Y018265D01*
X038320Y018217D01*
X038320Y018116D02*
X038416Y018116D01*
X038465Y018067D01*
X038465Y017922D01*
X038561Y017922D02*
X038271Y017922D01*
X038271Y018067D01*
X038320Y018116D01*
X038465Y018019D02*
X038561Y018116D01*
X038513Y018511D02*
X038561Y018560D01*
X038561Y018657D01*
X038513Y018705D01*
X038465Y018705D01*
X038416Y018657D01*
X038416Y018608D01*
X038416Y018657D02*
X038368Y018705D01*
X038320Y018705D01*
X038271Y018657D01*
X038271Y018560D01*
X038320Y018511D01*
X040196Y021906D02*
X040196Y022196D01*
X040342Y022196D01*
X040390Y022148D01*
X040390Y022051D01*
X040342Y022003D01*
X040196Y022003D01*
X040293Y022003D02*
X040390Y021906D01*
X040491Y021906D02*
X040685Y022100D01*
X040685Y022148D01*
X040636Y022196D01*
X040539Y022196D01*
X040491Y022148D01*
X040491Y021906D02*
X040685Y021906D01*
X040786Y021954D02*
X040834Y021906D01*
X040931Y021906D01*
X040979Y021954D01*
X040979Y022148D01*
X040931Y022196D01*
X040834Y022196D01*
X040786Y022148D01*
X040786Y022100D01*
X040834Y022051D01*
X040979Y022051D01*
X040341Y023006D02*
X040051Y023006D01*
X040051Y023151D01*
X040100Y023200D01*
X040196Y023200D01*
X040245Y023151D01*
X040245Y023006D01*
X040245Y023103D02*
X040341Y023200D01*
X040341Y023301D02*
X040148Y023494D01*
X040100Y023494D01*
X040051Y023446D01*
X040051Y023349D01*
X040100Y023301D01*
X040341Y023301D02*
X040341Y023494D01*
X040341Y023595D02*
X040293Y023595D01*
X040100Y023789D01*
X040051Y023789D01*
X040051Y023595D01*
X038561Y023616D02*
X038465Y023519D01*
X038465Y023567D02*
X038465Y023422D01*
X038561Y023422D02*
X038271Y023422D01*
X038271Y023567D01*
X038320Y023616D01*
X038416Y023616D01*
X038465Y023567D01*
X038561Y023717D02*
X038368Y023910D01*
X038320Y023910D01*
X038271Y023862D01*
X038271Y023765D01*
X038320Y023717D01*
X038561Y023717D02*
X038561Y023910D01*
X038513Y024011D02*
X038465Y024011D01*
X038416Y024060D01*
X038416Y024157D01*
X038465Y024205D01*
X038513Y024205D01*
X038561Y024157D01*
X038561Y024060D01*
X038513Y024011D01*
X038416Y024060D02*
X038368Y024011D01*
X038320Y024011D01*
X038271Y024060D01*
X038271Y024157D01*
X038320Y024205D01*
X038368Y024205D01*
X038416Y024157D01*
X040196Y027406D02*
X040196Y027696D01*
X040342Y027696D01*
X040390Y027648D01*
X040390Y027551D01*
X040342Y027503D01*
X040196Y027503D01*
X040293Y027503D02*
X040390Y027406D01*
X040491Y027406D02*
X040685Y027600D01*
X040685Y027648D01*
X040636Y027696D01*
X040539Y027696D01*
X040491Y027648D01*
X040491Y027406D02*
X040685Y027406D01*
X040786Y027551D02*
X040979Y027551D01*
X040931Y027406D02*
X040931Y027696D01*
X040786Y027551D01*
X040341Y028506D02*
X040051Y028506D01*
X040051Y028651D01*
X040100Y028700D01*
X040196Y028700D01*
X040245Y028651D01*
X040245Y028506D01*
X040245Y028603D02*
X040341Y028700D01*
X040341Y028801D02*
X040148Y028994D01*
X040100Y028994D01*
X040051Y028946D01*
X040051Y028849D01*
X040100Y028801D01*
X040341Y028801D02*
X040341Y028994D01*
X040341Y029095D02*
X040148Y029289D01*
X040100Y029289D01*
X040051Y029241D01*
X040051Y029144D01*
X040100Y029095D01*
X040341Y029095D02*
X040341Y029289D01*
X038561Y029217D02*
X038368Y029410D01*
X038320Y029410D01*
X038271Y029362D01*
X038271Y029265D01*
X038320Y029217D01*
X038320Y029116D02*
X038416Y029116D01*
X038465Y029067D01*
X038465Y028922D01*
X038561Y028922D02*
X038271Y028922D01*
X038271Y029067D01*
X038320Y029116D01*
X038465Y029019D02*
X038561Y029116D01*
X038561Y029217D02*
X038561Y029410D01*
X038513Y029511D02*
X038561Y029560D01*
X038561Y029657D01*
X038513Y029705D01*
X038465Y029705D01*
X038416Y029657D01*
X038416Y029608D01*
X038416Y029657D02*
X038368Y029705D01*
X038320Y029705D01*
X038271Y029657D01*
X038271Y029560D01*
X038320Y029511D01*
X012841Y024741D02*
X012841Y024644D01*
X012793Y024595D01*
X012696Y024692D02*
X012696Y024741D01*
X012745Y024789D01*
X012793Y024789D01*
X012841Y024741D01*
X012696Y024741D02*
X012648Y024789D01*
X012600Y024789D01*
X012551Y024741D01*
X012551Y024644D01*
X012600Y024595D01*
X012600Y024494D02*
X012793Y024301D01*
X012841Y024301D01*
X012841Y024200D02*
X012745Y024103D01*
X012745Y024151D02*
X012745Y024006D01*
X012841Y024006D02*
X012551Y024006D01*
X012551Y024151D01*
X012600Y024200D01*
X012696Y024200D01*
X012745Y024151D01*
X012551Y024301D02*
X012551Y024494D01*
X012600Y024494D01*
D16*
X015424Y023065D02*
X015575Y023065D01*
X015575Y023015D02*
X015575Y023115D01*
X015475Y023015D02*
X015424Y023065D01*
X015424Y022918D02*
X015575Y022918D01*
X015575Y022868D02*
X015575Y022968D01*
X015475Y022868D02*
X015424Y022918D01*
X015450Y022820D02*
X015424Y022795D01*
X015424Y022720D01*
X015575Y022720D01*
X015575Y022795D01*
X015550Y022820D01*
X015450Y022820D01*
X015450Y022673D02*
X015500Y022673D01*
X015525Y022648D01*
X015525Y022573D01*
X015575Y022573D02*
X015424Y022573D01*
X015424Y022648D01*
X015450Y022673D01*
X015700Y017865D02*
X015800Y017765D01*
X015825Y017790D01*
X015825Y017840D01*
X015800Y017865D01*
X015700Y017865D01*
X015674Y017840D01*
X015674Y017790D01*
X015700Y017765D01*
X015800Y017765D01*
X015825Y017718D02*
X015825Y017618D01*
X015825Y017668D02*
X015674Y017668D01*
X015725Y017618D01*
X015700Y017570D02*
X015674Y017545D01*
X015674Y017470D01*
X015825Y017470D01*
X015825Y017545D01*
X015800Y017570D01*
X015700Y017570D01*
X015700Y017423D02*
X015750Y017423D01*
X015775Y017398D01*
X015775Y017323D01*
X015825Y017323D02*
X015674Y017323D01*
X015674Y017398D01*
X015700Y017423D01*
X016200Y013865D02*
X016174Y013840D01*
X016174Y013790D01*
X016200Y013765D01*
X016225Y013765D01*
X016250Y013790D01*
X016250Y013865D01*
X016300Y013865D02*
X016200Y013865D01*
X016300Y013865D02*
X016325Y013840D01*
X016325Y013790D01*
X016300Y013765D01*
X016300Y013718D02*
X016200Y013718D01*
X016174Y013693D01*
X016174Y013618D01*
X016325Y013618D01*
X016325Y013693D01*
X016300Y013718D01*
X016250Y013570D02*
X016200Y013570D01*
X016174Y013545D01*
X016174Y013470D01*
X016325Y013470D01*
X016275Y013470D02*
X016275Y013545D01*
X016250Y013570D01*
X018920Y012284D02*
X018920Y012134D01*
X018920Y012184D02*
X018995Y012184D01*
X019020Y012209D01*
X019020Y012259D01*
X018995Y012284D01*
X018920Y012284D01*
X019068Y012284D02*
X019068Y012134D01*
X019143Y012134D01*
X019168Y012159D01*
X019168Y012259D01*
X019143Y012284D01*
X019068Y012284D01*
X019215Y012259D02*
X019215Y012234D01*
X019240Y012209D01*
X019290Y012209D01*
X019315Y012184D01*
X019315Y012159D01*
X019290Y012134D01*
X019240Y012134D01*
X019215Y012159D01*
X019215Y012184D01*
X019240Y012209D01*
X019290Y012209D02*
X019315Y012234D01*
X019315Y012259D01*
X019290Y012284D01*
X019240Y012284D01*
X019215Y012259D01*
X024420Y012284D02*
X024420Y012134D01*
X024420Y012184D02*
X024495Y012184D01*
X024520Y012209D01*
X024520Y012259D01*
X024495Y012284D01*
X024420Y012284D01*
X024568Y012284D02*
X024643Y012284D01*
X024668Y012259D01*
X024668Y012159D01*
X024643Y012134D01*
X024568Y012134D01*
X024568Y012284D01*
X024715Y012284D02*
X024815Y012284D01*
X024815Y012259D01*
X024715Y012159D01*
X024715Y012134D01*
X029670Y012634D02*
X029670Y012784D01*
X029745Y012784D01*
X029770Y012759D01*
X029770Y012709D01*
X029745Y012684D01*
X029670Y012684D01*
X029818Y012634D02*
X029893Y012634D01*
X029918Y012659D01*
X029918Y012759D01*
X029893Y012784D01*
X029818Y012784D01*
X029818Y012634D01*
X029965Y012659D02*
X029990Y012634D01*
X030040Y012634D01*
X030065Y012659D01*
X030065Y012684D01*
X030040Y012709D01*
X029965Y012709D01*
X029965Y012659D01*
X029965Y012709D02*
X030015Y012759D01*
X030065Y012784D01*
X032038Y012880D02*
X032038Y012955D01*
X032063Y012980D01*
X032113Y012980D01*
X032138Y012955D01*
X032138Y012880D01*
X032188Y012880D02*
X032038Y012880D01*
X032038Y013027D02*
X032038Y013102D01*
X032063Y013127D01*
X032163Y013127D01*
X032188Y013102D01*
X032188Y013027D01*
X032038Y013027D01*
X032038Y013175D02*
X032113Y013175D01*
X032088Y013225D01*
X032088Y013250D01*
X032113Y013275D01*
X032163Y013275D01*
X032188Y013250D01*
X032188Y013200D01*
X032163Y013175D01*
X032038Y013175D02*
X032038Y013275D01*
X034038Y014880D02*
X034038Y014955D01*
X034063Y014980D01*
X034113Y014980D01*
X034138Y014955D01*
X034138Y014880D01*
X034188Y014880D02*
X034038Y014880D01*
X034038Y015027D02*
X034038Y015102D01*
X034063Y015127D01*
X034163Y015127D01*
X034188Y015102D01*
X034188Y015027D01*
X034038Y015027D01*
X034063Y015175D02*
X034038Y015200D01*
X034038Y015250D01*
X034063Y015275D01*
X034088Y015275D01*
X034113Y015250D01*
X034138Y015275D01*
X034163Y015275D01*
X034188Y015250D01*
X034188Y015200D01*
X034163Y015175D01*
X034113Y015225D02*
X034113Y015250D01*
X035038Y014000D02*
X035113Y013925D01*
X035113Y014025D01*
X035188Y014000D02*
X035038Y014000D01*
X035063Y013877D02*
X035038Y013852D01*
X035038Y013777D01*
X035188Y013777D01*
X035188Y013852D01*
X035163Y013877D01*
X035063Y013877D01*
X035063Y013730D02*
X035113Y013730D01*
X035138Y013705D01*
X035138Y013630D01*
X035188Y013630D02*
X035038Y013630D01*
X035038Y013705D01*
X035063Y013730D01*
X032655Y021998D02*
X032555Y021998D01*
X032655Y022098D01*
X032655Y022123D01*
X032630Y022148D01*
X032580Y022148D01*
X032555Y022123D01*
X032508Y022123D02*
X032483Y022148D01*
X032408Y022148D01*
X032408Y021998D01*
X032483Y021998D01*
X032508Y022023D01*
X032508Y022123D01*
X032361Y022123D02*
X032361Y022073D01*
X032336Y022048D01*
X032261Y022048D01*
X032261Y021998D02*
X032261Y022148D01*
X032336Y022148D01*
X032361Y022123D01*
X032355Y026498D02*
X032355Y026648D01*
X032305Y026598D01*
X032258Y026623D02*
X032233Y026648D01*
X032158Y026648D01*
X032158Y026498D01*
X032233Y026498D01*
X032258Y026523D01*
X032258Y026623D01*
X032305Y026498D02*
X032405Y026498D01*
X032111Y026573D02*
X032086Y026548D01*
X032011Y026548D01*
X032011Y026498D02*
X032011Y026648D01*
X032086Y026648D01*
X032111Y026623D01*
X032111Y026573D01*
X015825Y027823D02*
X015674Y027823D01*
X015674Y027898D01*
X015700Y027923D01*
X015750Y027923D01*
X015775Y027898D01*
X015775Y027823D01*
X015825Y027970D02*
X015825Y028045D01*
X015800Y028070D01*
X015700Y028070D01*
X015674Y028045D01*
X015674Y027970D01*
X015825Y027970D01*
X015825Y028118D02*
X015825Y028218D01*
X015825Y028265D02*
X015725Y028365D01*
X015700Y028365D01*
X015674Y028340D01*
X015674Y028290D01*
X015700Y028265D01*
X015674Y028168D02*
X015825Y028168D01*
X015825Y028265D02*
X015825Y028365D01*
X015674Y028168D02*
X015725Y028118D01*
D17*
X029756Y013116D03*
X024506Y012616D03*
X019006Y012616D03*
X032606Y021666D03*
X032356Y026166D03*
D18*
X032081Y025916D03*
X032081Y026416D03*
X032331Y021916D03*
X032331Y021416D03*
X033731Y015466D03*
X034731Y014216D03*
X031731Y013466D03*
X030031Y013366D03*
X030031Y012866D03*
X024781Y012866D03*
X024781Y012366D03*
X019281Y012366D03*
X019281Y012866D03*
X016631Y013316D03*
X016131Y017316D03*
X015881Y022566D03*
X016131Y027816D03*
D19*
X015906Y028041D03*
X016406Y028041D03*
X016156Y022791D03*
X015656Y022791D03*
X015906Y017541D03*
X016406Y017541D03*
X016406Y013541D03*
X016906Y013541D03*
X019506Y012591D03*
X025006Y012591D03*
X030256Y013091D03*
X031456Y013241D03*
X031956Y013241D03*
X033456Y015241D03*
X033956Y015241D03*
X034456Y013991D03*
X034956Y013991D03*
X032106Y021691D03*
X031856Y026191D03*
D20*
X033706Y014966D03*
X034706Y013716D03*
X031706Y012966D03*
X016656Y013816D03*
X016156Y017816D03*
X015906Y023066D03*
X016156Y028316D03*
M02*
