G75*
G70*
%OFA0B0*%
%FSLAX24Y24*%
%IPPOS*%
%LPD*%
%AMOC8*
5,1,8,0,0,1.08239X$1,22.5*
%
%ADD10C,0.0720*%
%ADD11C,0.0848*%
%ADD12C,0.1080*%
%ADD13C,0.0556*%
D10*
X008361Y013141D02*
X009001Y013141D01*
X009001Y014141D02*
X008361Y014141D01*
X008361Y018641D02*
X009001Y018641D01*
X009001Y019641D02*
X008361Y019641D01*
X008361Y024141D02*
X009001Y024141D01*
X009001Y025141D02*
X008361Y025141D01*
X008361Y029641D02*
X009001Y029641D01*
X009001Y030641D02*
X008361Y030641D01*
X008361Y033641D02*
X009001Y033641D01*
X009001Y034641D02*
X008361Y034641D01*
X019111Y020141D02*
X019751Y020141D01*
X019751Y019141D02*
X019111Y019141D01*
X019111Y018141D02*
X019751Y018141D01*
X021111Y018141D02*
X021751Y018141D01*
X021751Y019141D02*
X021111Y019141D01*
X021111Y020141D02*
X021751Y020141D01*
X023111Y020141D02*
X023751Y020141D01*
X023751Y019141D02*
X023111Y019141D01*
X023111Y018141D02*
X023751Y018141D01*
X025111Y018141D02*
X025751Y018141D01*
X025751Y019141D02*
X025111Y019141D01*
X025111Y020141D02*
X025751Y020141D01*
X027681Y005961D02*
X027681Y005321D01*
X028681Y005321D02*
X028681Y005961D01*
X023181Y005961D02*
X023181Y005321D01*
X022181Y005321D02*
X022181Y005961D01*
X017681Y005961D02*
X017681Y005321D01*
X016681Y005321D02*
X016681Y005961D01*
D11*
X017753Y040101D03*
X019312Y040101D03*
X020871Y040101D03*
X022430Y040101D03*
X023989Y040101D03*
X023989Y041672D03*
X022430Y041672D03*
X020871Y041672D03*
X020871Y043243D03*
X022430Y043243D03*
X023989Y043243D03*
X019312Y043243D03*
X017753Y043243D03*
X017753Y041672D03*
X019312Y041672D03*
X011517Y041672D03*
X009958Y041672D03*
X008399Y041672D03*
X008399Y043243D03*
X009958Y043243D03*
X011517Y043243D03*
X011517Y040101D03*
X009958Y040101D03*
X008399Y040101D03*
X006840Y040101D03*
X005281Y040101D03*
X005281Y041672D03*
X006840Y041672D03*
X006840Y043243D03*
X005281Y043243D03*
D12*
X014635Y041392D03*
X035135Y041392D03*
D13*
X031181Y005141D03*
M02*
